
<global>
amp_veltrack=0
ampeg_release=0.25
</global>

<group>
group_label=RR1_0-42
lpc_hicc1=42
lpc_locc1=0
seq_length=4
seq_position=1

<region>
hivel=127
key=C#5
lovel=1
lpc=kLVqQbSk/MGPj+VBhUmOwTmJJUGBcQbAxXiJwNaqkkAcmau//vBDwJwMk0Cx9gk/aOelwOhLwEBxSzjA9FkrP1jJ0L8qUwu+cNeMP765WED3ZKjA4/ChQHlPncAkGC9A
lpc_rms=-39.95
sample=Tenor_staccato_PP_C#5_RR1.opus
</region>

<region>
hivel=127
key=C5
lovel=1
lpc=YBDpQYhLjsK624ZC23kIwmJMjUGrN8rAGS35wMqVCUHl6d7ANukFQQATEsB+tohA2HRmwRZkK0HN1o+/hV6uwIv1XUFmt2XBceLuQKTX0MBWoxVBEqaXwFXM+D1d4iA/
lpc_rms=-32.71
offset=536
sample=Tenor_staccato_PP_C5_RR1.opus
</region>

<region>
hikey=F5
hivel=127
lokey=D#5
lovel=1
lpc=xTKCQl1N4sIzWU5CGzOQwepqMkJgo5TBzWbPwCUMg8H1wbhB7r0Tv24XQ0EOEZjBrbUvwaDNwUA0yo5BMCaCQPV4BMEt2ofB44NbQSECEEEud66/zSLPwDMHTsGgTolB
lpc_rms=-27.58
offset=7237
pitch_keycenter=D#5
sample=Tenor_staccato_PP_D#5_RR1.opus
</region>

<region>
hivel=127
key=D5
lovel=1
lpc=L+88QuGg8cJsCupCS05jwqY170FYY43BOclQwFeHl0HN/w/CeqAqQoDry8H/TFlBwUpEwd/QTz0l9GBBQ+lfwc2sa0FcLnHBRjcOQQBLVMEkT7JB1VTzwJngHsH2m+xA
lpc_rms=-26.65
offset=251
sample=Tenor_staccato_PP_D5_RR1.opus
</region>

<region>
hivel=127
key=A#4
lovel=1
lpc=beTBQZkogsJd+Y5CtB09wqgv0kE8E+nAMBlOwRnEpEEKUD/BxkwxQLJsNkDbuuHA4V5kvw2kdEFgvpXB5qU/QTSfq8B08UJA4OJFP5OHacAlxHpA2nrTwAEutUDNDoK/
lpc_rms=-31.13
offset=450
sample=Tenor_staccato_PP_A#4_RR1.opus
</region>

<region>
hivel=127
key=A4
lovel=1
lpc=ofrzQTKlm8KTsJxCVIA7wiX49EHROobBZKjjwCW9Q0HcgltA+yAtwTdCg0EDKu/BrkreQcpdAsH0mvM9CSWgwFjTtUCo6OjAhvpeQXauZcGrQ1dBKT0/wYf9RkAAfeA/
lpc_rms=-27.44
offset=509
sample=Tenor_staccato_PP_A4_RR1.opus
</region>

<region>
hivel=127
key=B4
lovel=1
lpc=cRRYQX63+MGVz9lBpfJSwevbFEHTvJHAWKoqwOUv1j9AF1hAa0GVwPnmJECrira+E7sKwGZdjEDXtB3AMAtavhncjD97MobAqNjPQD3ZtcD+ksVAPz0awEWec8A41V1A
lpc_rms=-35.60
offset=587
sample=Tenor_staccato_PP_B4_RR1.opus
</region>

<region>
hivel=127
key=F#4
lovel=1
lpc=5QP5QZstgcKrMC5Ct7SWwS/1iUFpyRTBM8X1Px62McF8rYtBGa8ywcCgU0EhmdfAVQSgwG1MRsBtH0lBNdcwwXdIEkEUaTjBeLgSQXKDnsCF2pRAkPSOwD8ojUDCvOy/
lpc_rms=-32.05
offset=2151
sample=Tenor_staccato_PP_F#4_RR1.opus
</region>

<region>
hivel=127
key=G#4
lovel=1
lpc=1GK8QRBRTMLl0iRCVNOhwQ48lUF9EWDBzIH3vzHW1UCpKFPAh56eQLCJz8CmYJxAEzSDwHlS2D+8AcpArtMUwXpcikBaWbi/03nvv8lmwz+iMUJAo7qiuzaHjsD8wVZA
lpc_rms=-29.84
offset=6309
sample=Tenor_staccato_PP_G#4_RR1.opus
</region>

<region>
hivel=127
key=G4
lovel=1
lpc=PlqnQQSyTcICqE9CBTAOwpTkx0GWT0/BOMhpP+sEHb+n2MtAuz8CwRcXQ0HrmlTBl4QWQT0zDsHc4h1B1DXCwGO6rEApkXDBs/OjQXRAhcHD7j5B6GbswIvfh0D53NW/
lpc_rms=-33.22
offset=139
sample=Tenor_staccato_PP_G4_RR1.opus
</region>

<region>
hivel=127
key=C#4
lovel=1
lpc=vXIkQtEKt8IBhJxCB9tmwkHDPEKwxq/By7YlQV4ulcFMy5BBm1+swC5lWEG2vxTBeXlFwctpHkEhF9zA1UFIQdW6R8H3qpdAxMkNPJAEHUD3NQG//9wRQNYLrMBJbgJA
lpc_rms=-31.15
offset=4447
sample=Tenor_staccato_PP_C#4_RR1.opus
</region>

<region>
hivel=127
key=D#4
lovel=1
lpc=quJwQuDgDcPMLvZCbqN9wqV76kG7B7rAQLf8v+NhlMG5FiBCFC30wUj63UFZdYTBBVanwd3O3UE6RyDBAjYwQdhkZME4nxHAiyFrQacYoMAWMtfAp9eAQbQOtcEPFjVB
lpc_rms=-29.47
offset=1073
sample=Tenor_staccato_PP_D#4_RR1.opus
</region>

<region>
hivel=127
key=D4
lovel=1
lpc=GVp0QrNY38IeQHtCrN0awosAGkLY4qjB38UvQQHI8MAT3zFBWBgewE3+HEHcPgzBFvsfwaRI7D/zc7VAe62IvrYp1MBMr/NAnPo+wL4j7UDRUKbAxiBiwFKzij5w1iJA
lpc_rms=-32.36
offset=7028
sample=Tenor_staccato_PP_D4_RR1.opus
</region>

<region>
hivel=127
key=E4
lovel=1
lpc=PHx5Qr8LCcPRE/5CXFTVwgBovULksGrCiVoEQnkDCcLdifxB19bGwYON+EGV+pHBROZqwJgrSkCpsydAFXAUwFgzIUCPDYG/M784vrL33j9Xitu/2PCRQB62fsEM/zxB
lpc_rms=-27.88
offset=5377
sample=Tenor_staccato_PP_E4_RR1.opus
</region>

<region>
hivel=127
key=F4
lovel=1
lpc=8lJRQnsZ7MJj1cVCXIt/wlZDU0L35OHBvBhUQXE9vsG/FNlBO56UwXfUyUGdP6fBnucIwFLyIUGp+jTADMKkP9wGJ78JEXrAAYpRQHVjaD7deT3AqYYgPmo1gT/IBYo/
lpc_rms=-28.35
offset=5595
sample=Tenor_staccato_PP_F4_RR1.opus
</region>

<region>
hivel=127
key=A#3
lovel=1
lpc=bUvzQcrcisJIG5BCfu5+wg4dU0LKRQnCuMqDQVxKGMFq/h5Bt5YJwfflB0GJOnLAApOrwFj/M0FQRirB5RK3QIJGVMCEzldAuoldPddNm8DUzLhAFmNJwAVWir/lLfU/
lpc_rms=-30.74
offset=1153
sample=Tenor_staccato_PP_A#3_RR1.opus
</region>

<region>
hivel=127
key=A3
lovel=1
lpc=ZEQdQstGsMLKUJBCWrAuwpRQHkKg9sHBo8uEQC/rXMBctqFAesAUv5aqCUAwD29AhYtEwYgIlkA1xZg+ntdOQHX6FsBV1JNAF23WwFe1IkBpgCu/aHldQHHTXMD00WI/
lpc_rms=-29.83
offset=2987
sample=Tenor_staccato_PP_A3_RR1.opus
</region>

<region>
hivel=127
key=B2
lovel=1
lpc=Sn1HQVberME+/GdB6lwcwXAZ6kBXPIjA7KWWP7aoub/i8w5AzGsnwDogSkALh4g/bvKTwC9djEAFlYHApl9RQED9rL9jHSU/JnwGvx77xD2V6Xk/mQ/dvRHKHr9mRQW+
lpc_rms=-37.95
sample=Tenor_staccato_PP_B2_RR1.opus
</region>

<region>
hivel=127
key=B3
lovel=1
lpc=gbkgQgH0r8IxwJlCzKxkwsFtQkK01J/B9Tg8wJDXTz8HsD7ATqXuQA9Oh8ABU09BaXKbwUOn6UBPTy0/jwiHwIcS9kDAqnrA+XE2P8n+3b8gPgg/v6gQQP875r5F2c6+
lpc_rms=-32.34
offset=329
sample=Tenor_staccato_PP_B3_RR1.opus
</region>

<region>
hivel=127
key=C#3
lovel=1
lpc=bbEaQr2PnsKcBHRC5NIuwpcIDEKxGp7BMkxkQbHChcEvo31B99IEwdFwOkEhpvW/Sp4lwU/AIEBwT8C9xQiWPyIWhb+Gnpc+/0LFP3+MXL9FivU/TncDwDrGij/Gxjq/
lpc_rms=-30.56
offset=4822
sample=Tenor_staccato_PP_C#3_RR1.opus
</region>

<region>
hivel=127
key=C3
lovel=1
lpc=lm+eQcnvF8JNh/VBpm/OwZeYr0Ft21fBXrvKQI9z0sB/0+1ApbKmwA2LkEDet60/pdGKwAN+bUBPPmDAaMhkPz54gT+UU9A+QcPwv7RS7L0JPKU/hokMvgUsJz8E1kq/
lpc_rms=-31.94
offset=6520
sample=Tenor_staccato_PP_C3_RR1.opus
</region>

<region>
hivel=127
key=C4
lovel=1
lpc=y26PQmQPLcM4xyFD3fjOwogZh0KNjAPC9IxNQbECmsHnmKtBbRfxwPZ9LUEflQrAX/KdwWrYR0HN/XBAyU+VP1Mv8sAZu7y/P2SjQPMzdEDAvprAcMGXOgVYWcBJzFtA
lpc_rms=-26.97
offset=2680
sample=Tenor_staccato_PP_C4_RR1.opus
</region>

<region>
hivel=127
key=D#3
lovel=1
lpc=tmsLQjBHkcLVXWhC+UgfwsVQ6UGvkpTBvjA8QfvqDcEeAhdBSy9cvqtYXECE1zW/RUAnwRMy6UBA5GHAIBoSwDk/CEAxZanAATExQYFwD8FuRwtBo/K7wB6Qw0DYapDA
lpc_rms=-30.28
offset=1707
sample=Tenor_staccato_PP_D#3_RR1.opus
</region>

<region>
hivel=127
key=D3
lovel=1
lpc=KZMrQnNppsISnWtCg7EvwmMtG0IHLqjBIS0uQUCIBsEgk2NA3GFbQFYyl0DC8CTAUQ8DwSnxiEBVuKa+EdbaP+BJ0cAHzZBAlJdwv7MGckDnfnE/Obl6wOCbuD8YJx2/
lpc_rms=-32.51
offset=3514
sample=Tenor_staccato_PP_D3_RR1.opus
</region>

<region>
hivel=127
key=E3
lovel=1
lpc=NiARQhfndMKzDARC+4S4wRe1gEE7zVjAARAQP14WmcAnZxtB0tp9wMQdDEEB51XAKHqpwGQokT0NsnpA153lv3biI8DEx+O/cox5QAVRUD+/2C6/nOTcv7MHzD5VxyM/
lpc_rms=-36.93
offset=7442
sample=Tenor_staccato_PP_E3_RR1.opus
</region>

<region>
hivel=127
key=F#3
lovel=1
lpc=UXlAQrdMwsKnMoJC268mwtI8L0LnEqPB5zMPQceOncE9mFtBK9lDwHGvW0EewgzBjrYGwQG/okBoVH+/ZL+QQH33K8BIZYXAC7+RQOehrL4TpBRA/TuDP+kdw8BpCzJA
lpc_rms=-31.61
offset=4342
sample=Tenor_staccato_PP_F#3_RR1.opus
</region>

<region>
hivel=127
key=F3
lovel=1
lpc=KW0IQnp9isJVJ1ZCv7QXwm+w40F10ibBRLZDQFV5+sB7vyZB6q8Kwe24REEiR8DAhRR5wCkhQ0Ac30bAIBNXQPQNHcCotoM/HaE5v2N8sz/brBVAoOFVwOnQD0AGb6a/
lpc_rms=-34.81
offset=4527
sample=Tenor_staccato_PP_F3_RR1.opus
</region>

<region>
hivel=127
key=G#3
lovel=1
lpc=gYO5QTsLMMLd59ZBmhBHwXmnLkGTtnLA7k+Lv4u3N8CK6CdAfAFev/s4hkBTqio/ukyZwGJn/b10RT5A7Cq6v5rT0z8T36S/QvLwvud38r+0GZNAxqhXwCFPKEBBvLy/
lpc_rms=-36.79
offset=5017
sample=Tenor_staccato_PP_G#3_RR1.opus
</region>

<region>
hivel=127
key=G3
lovel=1
lpc=HaANQqR9jcK+l09CWfgVwhTL9EFD00nBqQn6QOObIME3ZtBADDxCv7NmMkDJ+Ek/0lgKwb5kpEAcKAHA2gaUQJkR4sCZ0IZAYkoSP1FMKsB+yZZAV8Wjv0znq8DRcntA
lpc_rms=-34.53
offset=3180
sample=Tenor_staccato_PP_G3_RR1.opus
</region>

<region>
hivel=127
key=A#2
lovel=1
lpc=X7WGQdGdFMLtcgxCfkbBwe37fUGVkTfBnkTEQPQgY8AT2XJAxJ+sv5G6279VkNlAG9ISwWoc/0Cfmp7Aq+/7P5C53L7tVJ6+/zgYPS4fV7+DNRFA3n8twHXb0z8PfVy+
lpc_rms=-30.49
offset=6711
sample=Tenor_staccato_PP_A#2_RR1.opus
</region>

<region>
hivel=127
key=A2
lovel=1
lpc=JtENQvEIrcLit6JC4fs8wiqS/0FUuLvBxb79QNLMMMBnjdRAVIbbwI4a6EAUzDdADbtywcfYSEG63rDAK7zGQDTR6MAuQg5AnSFoQJkIr8DZPXxAYPXmv9bovDxbiNI+
lpc_rms=-27.61
offset=3989
sample=Tenor_staccato_PP_A2_RR1.opus
</region>

<region>
hivel=127
key=G#2
lovel=1
lpc=mN8iQsczmMJrCjpCsXPSwZ1UpkGS+hfB6i4tQFzbl8AhTwpB+YK3wEX8g0CRiEZBfdqnwUZVc0EU7FTBk3FqQebuPsHd8S1AJzZDv37lGEC1bRfAtb87QJoOpcDquGBA
lpc_rms=-34.39
sample=Tenor_staccato_PP_G#2_RR1.opus
</region>
</group>

<group>
group_label=RR1_43-84
lpc_hicc1=84
lpc_locc1=43
seq_length=4
seq_position=1

<region>
hivel=127
key=A#4
lovel=1
lpc=3oF/QQzkH8KdwDZCJEQLwrJlrUGIUi/Bxn8/QEjdOz834gPAL+mYQGVh7cDxf9dA5XR3wM0Nzb9IlTFBzQ6CwQXhSkE95xDBY2kLQXuB4cD5BchAjbnLwGV7g0Di3ie/
lpc_rms=-26.57
offset=7815
sample=Tenor_staccato_MF_A#4_RR1.opus
</region>

<region>
hivel=127
key=A4
lovel=1
lpc=SweyQb1yU8JnylBCpSQBwli8OEFs8sVAgL5Owf01rkA+bxZBs2yOwRdIiUHiRkfB0ymQP7Bcd0ElbKXBR9kjQfWinECgTVnBqwQrQXaQIcC95nvAiJUAQRqYBMHTd3tA
lpc_rms=-23.78
offset=628
sample=Tenor_staccato_MF_A4_RR1.opus
</region>

<region>
hivel=127
key=B4
lovel=1
lpc=kT1eQYvDBcLTTgpCjniywfQmLkEkBG6/yYWdwNEWZ0At+X+9Gh7Ev266QUDIElPAxobkv8+QBkEGjw3BfuPAQErsjsA+0EI/4uqwQGufx8CniBFA9Q4SQDzdqMCURVVA
lpc_rms=-26.64
offset=200
sample=Tenor_staccato_MF_B4_RR1.opus
</region>

<region>
hivel=127
key=C#5
lovel=1
lpc=w3QeQaVmqsHDFKpB1BNZwc4A30BVfCXA8mYrP7yIPz+HEsi/KVrwP1/7cMBkkadAunWFwFUijz9L5RxA5uGAwN3eO0B6dyi+mSoLwPlogEDMz4nAGb+VQN9EU8BBfMY/
lpc_rms=-28.13
offset=116
sample=Tenor_staccato_MF_C#5_RR1.opus
</region>

<region>
hivel=127
key=C5
lovel=1
lpc=10QJQcZelsHcsZZBzfBawbH0KEHv1YnAKw1CwP1HpUCl0pHAziFrQHUZAMAV0l8/EhSsv9hf/z91mr6/01xTP8v5or/Z7Ps/HDnNvylmzz+etMS/mGnuP4Z2xL8fLYQ/
lpc_rms=-28.92
offset=877
sample=Tenor_staccato_MF_C5_RR1.opus
</region>

<region>
hikey=F5
hivel=127
lokey=D#5
lovel=1
lpc=pZPzQReXacIcjjNCyfnZwQ+D+EF5puLBgy2QQVcxdsGM2FpBLmmxwHx5AD+vP5A/wAEFwMj/rL4wMlM/BT0PQdEeQ8EtefJAMee2wEzgykAuSuu/8PwWP0aakr8fWeo/
lpc_rms=-21.13
offset=4475
pitch_keycenter=D#5
sample=Tenor_staccato_MF_D#5_RR1.opus
</region>

<region>
hivel=127
key=D5
lovel=1
lpc=iBOtQZtJQ8Jpni9CUXHTwZSz3UGgrODBzjuSQY4QhME64XxBC7SAwLV96r/4Dge/lXY2v8ToPEBoLRLA886uQA4w8cCGYZxA0NXwv2wcKL4iSQs/MlKoQF21EcHRPKlA
lpc_rms=-24.83
offset=560
sample=Tenor_staccato_MF_D5_RR1.opus
</region>

<region>
hivel=127
key=A#3
lovel=1
lpc=APZQQQ9PB8J2fSFCwE4IwmRZzUGtO4vBAT8fQQbR1sBB3nlADVb/vnW5rT856DzAnzlJP+JY8j9wty7AT7bdP4K9wT82WHbAcSg6QA/VWsCJy8FAIOuwwMCH8j/n7FA+
lpc_rms=-29.06
offset=732
sample=Tenor_staccato_MF_A#3_RR1.opus
</region>

<region>
hivel=127
key=A3
lovel=1
lpc=BobaQZ11ksLsIK5CK3GNwisUQkIEXNXBb0AhQbfr3MBPrtNA1Jb9v8bABECd+gHATzgRwGOx4T9060ZAW2u+wHJRD0GBGBfBB0m7QA8E3sB8JjtBpLgFwazQdj+7iVE/
lpc_rms=-24.72
offset=4693
sample=Tenor_staccato_MF_A3_RR1.opus
</region>

<region>
hivel=127
key=B3
lovel=1
lpc=HKeAQadLKcLu+VxCUW1XwmLBO0JYPRrCzs/sQUr0tsE8onFBMaoCwTfss0BITynAR6tMPQIMIL/uSoo/nOY/Pj7cA8Djdi5AZv4WwIdXUbwpWsY/JBgMv3gFrL/gxts/
lpc_rms=-27.69
offset=333
sample=Tenor_staccato_MF_B3_RR1.opus
</region>

<region>
hivel=127
key=C#4
lovel=1
lpc=GEYbQjOfwcI1HNFCev+ewgcERkKK88fBIoxtQRR7msHPVb5B8fWPwTjMXkEGI6jAMDgIwUMHOEH3xuLA0EYCQRdruMC0XYe/DJHfQDPRC8FKmBpB3Rw6wbJEd0DTar0/
lpc_rms=-26.58
offset=6374
sample=Tenor_staccato_MF_C#4_RR1.opus
</region>

<region>
hivel=127
key=C4
lovel=1
lpc=If8SQvw+usK3XMpC8VCTwsyeKEI38pnBxvdmQZ48t8H1sLdB9FshwVuooUAnIg9AZzd/wQ87nUF7cXXBOhRXQZSCNcHCbq9AtBGuP8DJrMCV7+1AggvmwGSIFEBkdy8/
lpc_rms=-21.77
offset=4928
sample=Tenor_staccato_MF_C4_RR1.opus
</region>

<region>
hivel=127
key=D#4
lovel=1
lpc=3osJQo/VuMIEatJC0RWawo4KM0KIU6DB1o1NQa1j1cGgJwlCFdOlwbWxJUH5Wiw/W4OTwaeLlEFfEqrA1NWvQCiHH8HUl3JAN6aHPxRQW7+alMa/9HPdQIgg/sDhTUVA
lpc_rms=-25.41
offset=1086
sample=Tenor_staccato_MF_D#4_RR1.opus
</region>

<region>
hivel=127
key=D4
lovel=1
lpc=ZvtPQogf/cKm/+xCvBGhwkHzgELkSCLCoZSeQUIbo8Frcs9BXpWrwa9pyUHM/5vBEMvNwAuJSEFD8Pu/FiL3QHXfgsEDYw1BscgbwMEImED05oLA1zXNPxbzBcApTbg/
lpc_rms=-27.80
offset=5749
sample=Tenor_staccato_MF_D4_RR1.opus
</region>

<region>
hivel=127
key=E3
lovel=1
lpc=RHyCQd0AGsI64R1Cga/5wR100UHEF4XBa8psQGcmxb/5VZhATzTHv110Sj+ek0/AZpqQP0KZqT8hfo4+Zd+ivwHOpr/YSHJAadaHwOirYEDoocu/3iYoP0YZtb89BZY/
lpc_rms=-29.28
offset=7953
sample=Tenor_staccato_MF_E3_RR1.opus
</region>

<region>
hivel=127
key=E4
lovel=1
lpc=7H4AQhPYqsKb4LxCrZaOwlbabEIESyDCe1ySQKGxhEB50CZBEbNDwbDUWEF/5aXBdFqBQfsIhcD0WKY+Bovzv9IXsUDNDjfBfGdZQQvhZMFsl3dBY5pQwa2C+UAgUBDA
lpc_rms=-22.74
offset=1575
sample=Tenor_staccato_MF_E4_RR1.opus
</region>

<region>
hivel=127
key=F#3
lovel=1
lpc=kpzjQSm0k8KU3qRCOgiAwuWhLkJxAtPBazOoQTyQvcE4K5FBcCYAwT3f4kBrhHvAq2XewKEfIEG98HzAPoIpQK+ywcCSX7VA9iSHwAoB/j/rVlU/1Fg+QIiw18DFi1BA
lpc_rms=-26.82
offset=5657
sample=Tenor_staccato_MF_F#3_RR1.opus
</region>

<region>
hivel=127
key=F#4
lovel=1
lpc=pJX2QeFKmMIySZ5CY0lhwp3HF0I5jonBNdk0P9qdy8BD2IBBOJVswSAmjEFapIrBtDRIQOkoIUEKOyzB/i0pQctbWME1xAFBnRjnvzwxLj9X136/FFC9QE3BA8FbSHVA
lpc_rms=-25.93
offset=1380
sample=Tenor_staccato_MF_F#4_RR1.opus
</region>

<region>
hivel=127
key=F3
lovel=1
lpc=mqe6QaFrcMLSiY9C7it2wsqeIUK2nZTBoj31QO1gBsEWoiZBIJwIwecaFUHTH6zA5+F1wOvlB0GlFRTBgs8cQcB49sCU8y8/02jHQOztDsF5z+VAdHTivxMnScA+ZidA
lpc_rms=-27.10
offset=4701
sample=Tenor_staccato_MF_F3_RR1.opus
</region>

<region>
hivel=127
key=F4
lovel=1
lpc=YnybQdD5Q8JrJGFC7x0zwmnxwEGfEKC/lkdbwZ2lMUHYXhNADfIuwWVWfEEI+17BF3t8QIgvtUDgm+fAUGw5QJHU/Ty9GJPABtn9QFBTg8An07y/YI6BQIR2I8D0HRU/
lpc_rms=-22.18
offset=4282
sample=Tenor_staccato_MF_F4_RR1.opus
</region>

<region>
hivel=127
key=G#3
lovel=1
lpc=Iqt+QSAvI8IkTD1CNOQYwnW4rUEx8aLAff6mPs1cxsDNYipBVToOwZgIXUDNfcVAn0RMwYCzK0GgQqPArv+6P49d5r6GxLs+iaNkP0NudcC0YLNAu7rDwNJdo0DR0uy/
lpc_rms=-28.70
offset=473
sample=Tenor_staccato_MF_G#3_RR1.opus
</region>

<region>
hivel=127
key=G#4
lovel=1
lpc=CIwwQe14vsGlarBB7FVfwQWFFEE7sHPAlQlKwEChjkAQUM2/nDRev2khTEAqdnLARbGFPyeY3z8IwtI96ztpwLKAwUD1lffAxPcAQeOAHMFSmARBvzlavwU6WsAqNRZA
lpc_rms=-27.96
offset=685
sample=Tenor_staccato_MF_G#4_RR1.opus
</region>

<region>
hivel=127
key=G3
lovel=1
lpc=hmGvQX+pbcJd7Y5CIsJrwkV8LEKCEtjBfCkNQfo0Ar6Jh94/jCFKwCwYsEC4G8rAOHdzQFeFXMDdeqdAaBKTwNRIM0D5nBTApbBFQDYwyMDh3ChBVUMewXu9g0BJWdy+
lpc_rms=-28.82
offset=4899
sample=Tenor_staccato_MF_G3_RR1.opus
</region>

<region>
hivel=127
key=G4
lovel=1
lpc=CkksQYM81sHXKvJBExqzwYZnUUGx2DTA/5ISweLMXEHLlwPBbOsvP6cDYkB/cMLAT78AQTFN0sB8lQBAelEFQPaOiMAwCqdA62OTwKiZ0D9CUjNA+FGNwN9xtT9CN0g/
lpc_rms=-26.23
offset=299
sample=Tenor_staccato_MF_G4_RR1.opus
</region>

<region>
hivel=127
key=A#2
lovel=1
lpc=GOnXQetUV8JheQpCxmGUwRlEpkGfeWzBpqEKQXtKNcHKlClB1VFtwJbmAkFtTgLBkHaKP6WjTsBStW5Av22OPwLKEcAalJK/l/keQFPdoL79pGC/KkJgPxAnjb/pLjA/
lpc_rms=-29.49
offset=4150
sample=Tenor_staccato_MF_A#2_RR1.opus
</region>

<region>
hivel=127
key=A2
lovel=1
lpc=Ddj+QT5Sm8I3pY1CePITwqylr0HigS3BoiOJwNAe/D602TFBRAMJwUKSykCeIqTA0qumwArwMkHgS4TAl9EfQOHw1cBUIYBAImOSvnMfpr9SycI/jLmXPxQ+ZMAqIwBA
lpc_rms=-26.66
offset=7209
sample=Tenor_staccato_MF_A2_RR1.opus
</region>

<region>
hivel=127
key=B2
lovel=1
lpc=mnMZQidcyML/ytVC3YWZwmgebEIPzifC+l6nQfvIo8E7FslBB8+LwYjdmUGks4vB6JIHPg1qDUH5xti/Wj6jPfunXj4T7UnBdDyGQRs398CCF5M+248OQEZTAsDrKEo/
lpc_rms=-28.79
offset=6191
sample=Tenor_staccato_MF_B2_RR1.opus
</region>

<region>
hivel=127
key=C#3
lovel=1
lpc=7EkQQgivqcKiVp9CHItVwtkmFELAkbTB6U8gQa5rH8F6E3NBnVwjwTcDJUG4+ODASBG1wF1iGEGZ46XAsozAQNRZGMHrl4VArGOMP4ah+T/9L07AjznZP2jFDMAcyLA/
lpc_rms=-25.09
offset=4686
sample=Tenor_staccato_MF_C#3_RR1.opus
</region>

<region>
hivel=127
key=C3
lovel=1
lpc=T0YHQkw1n8KkwpRCSI8zwn9JykGNmXjBs8z7QHENn8AktrFAaMsWv+WloEB+4cPAnhNqwEt2AUHpfsXAxaYLQMBRaL74K2zAdHW8QNn3LT9sZ9nAyJIHQdGy28AMwSRA
lpc_rms=-24.54
offset=8669
sample=Tenor_staccato_MF_C3_RR1.opus
</region>

<region>
hivel=127
key=D#3
lovel=1
lpc=H+OYQUclNMJX1zVCU7gEwuWOqkG5OULBWfwMQSeIRMEgLIBBXVwuwYs+yECd83jAYnCzv8F5rEBDl5bAk3Y7QK5gpcDWCqtAi/MFwPs7WD+2nY6/R2KCPwMYaL9TAEI/
lpc_rms=-28.47
offset=1056
sample=Tenor_staccato_MF_D#3_RR1.opus
</region>

<region>
hivel=127
key=D3
lovel=1
lpc=SaviQdJycsId1kFCo4Hywc0xq0GgI0nBs0gzQYjaZsFtvFdBMM6pwIhZ8UBQyMHAoQe2wDBGuEBChJHAUk4RQTVmBcFYfZo/P42GP4gjqT85pIc+tPN7v5VXGr9IJiI/
lpc_rms=-29.25
offset=6424
sample=Tenor_staccato_MF_D3_RR1.opus
</region>

<region>
hivel=127
key=G#2
lovel=1
lpc=LjR1QU1+GcIaHR5CWdfHwfd2eUFJdxXBqC8gv2c0QECrXCNAvy44wIL0vz8PuRfA/o1vviNllkCkHZLAyiJ2QHOsssAkfE5ANRHIP8g8FcC7Z/E/0ik2wHR+QUBIm5q/
lpc_rms=-27.04
offset=5256
sample=Tenor_staccato_MF_G#2_RR1.opus
</region>
</group>

<group>
group_label=RR1_85-127
lpc_hicc1=127
lpc_locc1=85
seq_length=4
seq_position=1

<region>
hivel=127
key=A#4
lovel=1
lpc=IhnsQIFtdMEx041B8vaEwWc6TUF8eMvAZEinP9fE6b0HiaK+NhsFP2ndZb7n+o6+rxgqP7skmL/Na1g/4NeZP3tUgcA88ZlA6pg1wKR3XT+VWcs/OXIfwDVWkD8Qmxk/
lpc_rms=-20.61
offset=252
sample=Tenor_staccato_FF_A#4_RR1.opus
</region>

<region>
hivel=127
key=A4
lovel=1
lpc=WUbsQDONgsEt3Y1Bypt1wajkE0EhF7C/Ynr4vwXHBz81Qrk/sVb6v0d2BkAkChi/a3QOwCe0OkDVkr2/yBoSv7Dztj/psGe/lBdeP8uwDL7d6tg9YPggvYE1hL/emko/
lpc_rms=-18.86
offset=247
sample=Tenor_staccato_FF_A4_RR1.opus
</region>

<region>
hivel=127
key=B4
lovel=1
lpc=uzazQE3GRMHvFmdBaDpSwW4ZGUHsJJ/AFGjTP3PO7b/PsXxAzkWZwL0FikAAhQjAytLFvhijtj8eKj6/mqWbvtKmiT6DIAM8WvVhPppdNL85i9Y/y2vWv214eD9H0PK8
lpc_rms=-20.71
offset=539
sample=Tenor_staccato_FF_B4_RR1.opus
</region>

<region>
hivel=127
key=C#5
lovel=1
lpc=OGGNQORWCcE4PChBr/kjwc8B/UAU8pDAAfYSQG1RAMCRsgRAPxEawIVIXUCuGIbA7qyAQI1eUMDlUxRAc4Ysvx/qML/dVYw/v2Yiv0SLrD7ZYvY9XVySPq5OfL4FgL0+
lpc_rms=-24.13
offset=701
sample=Tenor_staccato_FF_C#5_RR1.opus
</region>

<region>
hivel=127
key=C5
lovel=1
lpc=H6WKQNO3DcH6zipBOgUlwcycEEG32qbA57FuPwJOID/y/Gi/1rxoP0P/eb8WpIA/FWH4v3pfKkCHUgfAiaJdPyQy7z7fxR+/VXpkP0IrD7/FwtE9frw/P/0SIr+MlJo+
lpc_rms=-21.96
offset=629
sample=Tenor_staccato_FF_C5_RR1.opus
</region>

<region>
hikey=F5
hivel=127
lokey=D#5
lovel=1
lpc=yf/8QCt1hcGrCZpBZMSAwR1NJEGfOI/AU6EJQGbUV8BYCc5AOsQBwTv1r0Aa4pO+YIsqwNqNJkBQjNK/+jWmP7gvRb9zmwNAedRFwBQqN0CS/p2/Z+CpPV1OkD9XM8m+
lpc_rms=-20.11
offset=5410
pitch_keycenter=D#5
sample=Tenor_staccato_FF_D#5_RR1.opus
</region>

<region>
hivel=127
key=D5
lovel=1
lpc=gjPKQE2HOME1tj5BNNIswYTuEUE5WLnAQ4R0QHRiW8D1kkpAlO4cwJlgxzzfaMY/oymCv/HRyD+k3Nq/8i9xP7rNTL5vbkw/TEMUvhNNZ7+EldM/SRSYvwyvwj2FE1g/
lpc_rms=-20.16
offset=7
sample=Tenor_staccato_FF_D5_RR1.opus
</region>

<region>
hivel=127
key=E4
lovel=1
lpc=78kAQTSGmsFwbbdBDNKpweZthUE7YPPAgcHlv4gOY0AQXIu/Ngavvxp7rEAWWvvAW7jDQGLuZ8AhHD5AUOYSwO9r2T+bnKa/5WqSPrmrPD/5f6S+y1MPvzXTSD+kpK6+
lpc_rms=-20.75
offset=7007
sample=Tenor_staccato_FF_E4_RR1.opus
</region>

<region>
hivel=127
key=F#4
lovel=1
lpc=2gAUQTXimMEFDaxB+2eowW2bg0FpPB/BF0K6QPTo3cAm5/JAPu7mwLFIB0EkPb3A8I3hP/4G3j5dr7a/jC/eP6GaEMBggnc/BfhEvrQmqj7uJbc+LbF8PqjbcL0zhNY8
lpc_rms=-20.88
offset=732
sample=Tenor_staccato_FF_F#4_RR1.opus
</region>

<region>
hivel=127
key=F4
lovel=1
lpc=f7wfQcxPrsE9rclBD+LGwXYbnUHe+SrBcJqiQPVXwMDeZeRABOHgwAiC10BQDDbAfu4bwE1vdUDW8TLAOaMCQMLDnr+5zTG/WPJWPtZ+9j8fJgrAb14tQOqWz79IHb8+
lpc_rms=-19.86
offset=6473
sample=Tenor_staccato_FF_F4_RR1.opus
</region>

<region>
hivel=127
key=G#4
lovel=1
lpc=g56HQEXWBsHNxw1B9PgBwYDG30ApbGnAc13iPkYAkb6PjT+7ApZdPxvGdLxcdFa/27cNPwZlJ79N/ds/fLHtv0oYbT/JFwG/kpEQPyTUir/FaMQ/dYqtv5jiID9b+14+
lpc_rms=-21.47
offset=246
sample=Tenor_staccato_FF_G#4_RR1.opus
</region>

<region>
hivel=127
key=G4
lovel=1
lpc=arbfQPsegsFGeppBUEeVwYhneEEXPBHB2n5zQKp9P8BfNTtApZ1jwMlUvEA/FLvAHQ1uQPanDsCGoMU/GOQUvwYkCb13AT2/opnAP5kqqL9EJUE/otowvobx0L5U6Rw/
lpc_rms=-23.39
offset=4491
sample=Tenor_staccato_FF_G4_RR1.opus
</region>

<region>
hivel=127
key=C#4
lovel=1
lpc=y3QsQc1tucGc68dBvv65wXvYnkHS2TLBAnURQIezS76QWpU/72mqPo/1m740vaO/d0l/P0/7qD50i84/0+aDwONI/z/v3Ys/t59+v3VR9D71i1K+k+uWvaamrD7jG6c+
lpc_rms=-17.46
offset=3523
sample=Tenor_staccato_FF_C#4_RR1.opus
</region>

<region>
hivel=127
key=C4
lovel=1
lpc=iTIgQah0qsEyfqhB6bOEwTdzNkFKMTTAFc2JwJOKFkC5y7c/SoXdvmgJY79xYNc/7aRnwG/xlkDyrmm/SFpiwGP2U0A7mdG/EU9cPzPgij8QtBXAdGQfQJe29L9OQ1Y/
lpc_rms=-20.07
offset=6182
sample=Tenor_staccato_FF_C4_RR1.opus
</region>

<region>
hivel=127
key=D#4
lovel=1
lpc=8xcOQV1uoMEOQr1Bm+7BwShGnkEtMjLBiyWUQJAGQ8ChNFVAUq5gwCeQikDdVDPAopvovrXKFUB6JBXARqrdP52HJ8DDHyJAWTSmv8CSqz4iaApABM5EwLTIIkDiyae/
lpc_rms=-21.24
offset=5611
sample=Tenor_staccato_FF_D#4_RR1.opus
</region>

<region>
hivel=127
key=D4
lovel=1
lpc=D75OQfbb9cETsBBC/eoMwgvO2UGSm0XBN14gQHwNasDh0NxAIhAgwSeFXEFfhwbBzX7Av5FavUBgwIvAqsh+P1IfIUDobsbAmkOyQMS/l7+20bS/cKpEQPDMhMCY4whA
lpc_rms=-20.30
offset=5961
sample=Tenor_staccato_FF_D4_RR1.opus
</region>

<region>
hivel=127
key=A#3
lovel=1
lpc=RTfsQPw8g8Gq4pZBTiiPwfaoSUEfcZLAQI3lvw7VdUAnxyjA8bRbP0TZqD/8qRjAry8AQANrZb8YniA9EnBKP2w2IcDKVEdAEPH9v+GC7z6nViU/9Qx2v0o/fj7Jj9E+
lpc_rms=-22.91
offset=357
sample=Tenor_staccato_FF_A#3_RR1.opus
</region>

<region>
hivel=127
key=A3
lovel=1
lpc=e4jNQM2sVcGqyF9BjltKwfOeEkGo4RnA2qtswA2CkkCFvF7AmRwGQLvdQz//MDPAtzZHQKkPJsAIKSBAxXnwv4rHiD59Kp29X/05P/Fgr78pQeQ/jOLSvyXuiz+bqAS+
lpc_rms=-23.25
offset=4986
sample=Tenor_staccato_FF_A3_RR1.opus
</region>

<region>
hivel=127
key=B3
lovel=1
lpc=zwO6QIypQcH0oVNBO1ZBwUvMDkGsbWjAnQTRvxniKkAqkOi/zTmaP1UZjr7Ud8q9luMovq2J0T4LdQU/Wi3/v3gpI0ASwifAoesXQEuh+L+0sac/q1NEvyks+T2s0MI+
lpc_rms=-22.59
offset=306
sample=Tenor_staccato_FF_B3_RR1.opus
</region>

<region>
hivel=127
key=G#3
lovel=1
lpc=N7+RQO01EMGH4RdBVTUVwYpXAEF3AIrAlVe1vbz68j8M8xjAkbs0QJseBcCfm1c/zsKFPKd7Ob50ehc/oKdHv2VmSj5FL6M+RBeUvZBMvb3laZy9uAauPX2pc73TJZQ9
lpc_rms=-24.49
offset=4170
sample=Tenor_staccato_FF_G#3_RR1.opus
</region>

<region>
hivel=127
key=E3
lovel=1
lpc=6i3/QNWti8FzrJtB22OTwemEdkG+tDbBPM7XQD/nH8DA1mA/a0oUv1TS1T4qwFm/kasJQDnyM8D1gj9AKS0ZwGIRSz8DBEI/qlXXv9gkgD9bdX4/XpnJv0wtpj4Rheg+
lpc_rms=-24.35
offset=6132
sample=Tenor_staccato_FF_E3_RR1.opus
</region>

<region>
hivel=127
key=F#3
lovel=1
lpc=vvbDQHEHRcEC5kpBOzg/wcL0GkGeAZfAMyOHv0HObkBQHY/AiFCPQNhdQsCxkKs/x8kcP1K6179tSOU/R3jDv8F4XDweIhFAZPdAwIomCEAKWIu/zQAFP0ynLbwKn4C9
lpc_rms=-21.67
offset=1506
sample=Tenor_staccato_FF_F#3_RR1.opus
</region>

<region>
hivel=127
key=F3
lovel=1
lpc=DhH5QB/TfsFpaoRB3oJ7wZKgQUHGrKTAL+cjvyfZM0AXrD7AVeUlQJySmr9LJSy/A2rpP3M0Pr/QhHE8gF37PRpTyb9dX/0/uJqAv0gG0b2J0RQ/31Qmv+4iqj4r/8k+
lpc_rms=-22.47
offset=5942
sample=Tenor_staccato_FF_F3_RR1.opus
</region>

<region>
hivel=127
key=G3
lovel=1
lpc=ID3TQAmbUcFwk05BYGk0wQygBEEqY0DAXRwwwJ8gikDzEnbA9/JUQDQ+vb9p6Mi+mJS+P5z+z78il9M/O+aUv/31Jb6dLpw/HdjOvnKNcL+fROc/Vubav4a/cD+/frS+
lpc_rms=-21.92
offset=3427
sample=Tenor_staccato_FF_G3_RR1.opus
</region>

<region>
hivel=127
key=A#2
lovel=1
lpc=WQqDQfROGcJITx1Ctn8GwhVCAUIVM+rBJ/O1QXLZj8FyKYdBV6E8wZlUh0DV1JY/p/JewEywgkD7ZVXAEV1ePYQ6cT0KrhJAHR7VvyEm9D/RFw7A9o8AQJ6xBcAQSE8/
lpc_rms=-22.19
offset=6929
sample=Tenor_staccato_FF_A#2_RR1.opus
</region>

<region>
hivel=127
key=A2
lovel=1
lpc=gAgAQZ8piMHAJ4FBrkhDwcarGUEE9dfAHy0xQD3EhL8VVhVAH+JbwOxhPECKuum/E6D+Pzlov7+2DYu/kHA7QDoNLcD2EChAlNTbv/ZrF7/yrCNAhlQRwNEm9z43Uwo+
lpc_rms=-25.72
offset=7951
sample=Tenor_staccato_FF_A2_RR1.opus
</region>

<region>
hivel=127
key=B2
lovel=1
lpc=47EsQaqwvMHX17lBeVWWwRzleEG7CkDBTTkLQbEJCMGNXxdBVlnTwAKWTkC8bPa/o3wFQDkOTb/K0AS/AaaVv3Wx3z8hVWW/cImfP0G4mr+Xw4E/gSgEvmwGBb59Cle+
lpc_rms=-23.59
offset=5777
sample=Tenor_staccato_FF_B2_RR1.opus
</region>

<region>
hivel=127
key=C#3
lovel=1
lpc=Y5vGQUzZfMKRcY5CXipvwjBoSELTUBvCNim7QZuBZMEDhEpBYU2zwKv+QMAY3JNAAT1VwLKWwkD3MQ7BJwEVQYpvO8E9QVtBG183wcHV/0AkWaPA9jGgQEfLn8CDXvY/
lpc_rms=-20.51
offset=6141
sample=Tenor_staccato_FF_C#3_RR1.opus
</region>

<region>
hivel=127
key=C3
lovel=1
lpc=7h9jQc7//cE6V/xB9RHGwV5yoEEueXPB63YVQdZd98B6ow9BV9HnwF6wm0ALclfAdrVXP1EmjUC66vLAyn7YQNiZ0MB0xNVADuhcwPfDXz97J2i/L9WhPzI1tL8zgTs/
lpc_rms=-21.98
offset=6576
sample=Tenor_staccato_FF_C3_RR1.opus
</region>

<region>
hivel=127
key=D#3
lovel=1
lpc=UWvzQE1yhcFhLZBBE556wVfzOUER++zAhOuOQA5/h8BtWJ9APflzwEBiCED664+/vgFlvv9GIEB8Y1nA+xAWQAqq279csTs/Sp3xPjS1RL9piBA/K2X5PuKZyL7T6na9
lpc_rms=-24.13
offset=5997
sample=Tenor_staccato_FF_D#3_RR1.opus
</region>

<region>
hivel=127
key=D3
lovel=1
lpc=5Dg1QfNsyMEE/8RBl5+Qwa7YPEE2f8XA4lUNQLNKIMC1EZxArr54wIN+cT/gccc+3VtNvy5zakButqrAuQJdQMjx4r8u4bo/R9RWPi60DsAD/hhAF5SGv5I4N78m8Gw/
lpc_rms=-19.27
offset=5342
sample=Tenor_staccato_FF_D3_RR1.opus
</region>

<region>
hivel=127
key=G#2
lovel=1
lpc=5H3vQH6resHCrV1BuejswCpRD0BMmYa/XsQGQNhdQsClgZFAVjujwDyMJ0BWEyVAzPuhwFWIZEDOg/O/kKtVPzaozb7nU0U/ocqKv0RMyD8Y9Y6/TOdXPtD2ET6DDQu9
lpc_rms=-18.55
offset=7964
sample=Tenor_staccato_FF_G#2_RR1.opus
</region>
</group>

<group>
group_label=RR2_0-42
lpc_hicc1=42
lpc_locc1=0
seq_length=4
seq_position=2

<region>
hivel=127
key=C#5
lovel=1
lpc=eibYQdXUbMLzjk5Cglj1wd0HhUEx0CZAI5YdwfROjD7IL2JAyrfEwHKiNkFJ3GU/gmN/wSkmhkEq5SLBcQkpQC9y7UCBYI3Bl4l/Qf35msAkxMO/ubACQUe9TMFNheNA
lpc_rms=-35.11
offset=133
sample=Tenor_staccato_PP_C#5_RR2.opus
</region>

<region>
hivel=127
key=C5
lovel=1
lpc=Zhe/QbpLc8LzwXZC0Ln2wTYLK0HT91zA+zzcwDazS0G2lCrBLBC7QHCdB0AMT5HAyMx+P2w4hb/1CKdA5IcWwVxTJUFBNTjAqwTpwB+H90CWatG/x7R/P3QlDMDn87Y/
lpc_rms=-31.07
offset=624
sample=Tenor_staccato_PP_C5_RR2.opus
</region>

<region>
hikey=F5
hivel=127
lokey=D#5
lovel=1
lpc=xERGQha2vcLQallCljeHwYxPEkIqWPDB0X0NwOjVDEA/nlFBIGjawITeN0GtNWDBwDCKwFWn5sD80utB/k+BwFneH8Fvw1/BCSyFQQQT40AalJXAY2CDwNWFFMG9aUhB
lpc_rms=-26.36
offset=4651
pitch_keycenter=D#5
sample=Tenor_staccato_PP_D#5_RR2.opus
</region>

<region>
hivel=127
key=D5
lovel=1
lpc=eFUjQvisycL16K5Catv1weZOtkEWku7BW8fYQLDYjUFQRtjBrpGzQZzvmcD40a3A83F1QIri6MAubINBvi2bwflokkHSTCnBbAbuv+eBlEBEvMm+xWziQMiAScFGX89A
lpc_rms=-26.43
offset=97
sample=Tenor_staccato_PP_D5_RR2.opus
</region>

<region>
hivel=127
key=A#4
lovel=1
lpc=qmK3Qbt+YsKOKGRCtXUVwq/6wkHhMfnAVSD+wBHlpkDaJANBikZ9wQm1j0F6doTBLkKjQPxbHUEto4XB02GDQZAmEMEVZgJAyhLQv+KPLcAwlx1BrhDdwPopNT72SrE/
lpc_rms=-30.99
offset=361
sample=Tenor_staccato_PP_A#4_RR2.opus
</region>

<region>
hivel=127
key=A4
lovel=1
lpc=ZJ0nQivJ3MIPbe9Cfaerwu2XeELuTAbCrHSDv/XvlECg/5pBpREFwjrIHUL+oiXCnUecQX2B70DNDSHByL/9PkwrlkASxD3BjqihQefsb8FNAhtB5L3ywFvcX8CcTLtA
lpc_rms=-28.35
offset=507
sample=Tenor_staccato_PP_A4_RR2.opus
</region>

<region>
hivel=127
key=B4
lovel=1
lpc=I/xWQX+OAsLipf5BobyUwasNRkF3u4/AS6ypwPkklECvCtE/B/WTwDPDhUCGHlE/ARD/wOUrHEHqSM7AhkWJQGzBRMCQ4hg/w7g/P/83Pj45QVe/OphUQHzSrMDKi0pA
lpc_rms=-32.82
offset=205
sample=Tenor_staccato_PP_B4_RR2.opus
</region>

<region>
hivel=127
key=F#4
lovel=1
lpc=G64AQuNQjcJRB1lCpQPlwTQ0vkFx0DvB//JqP2JWK8FH76JBQE2BwToioUEsr1TBdA0HwcseI0Gjnag/OY1HwMOskj+Ut9DApEyUQI4hKUDKaD3AKBhxQMokWMBzAnc/
lpc_rms=-30.93
offset=3302
sample=Tenor_staccato_PP_F#4_RR2.opus
</region>

<region>
hivel=127
key=G#4
lovel=1
lpc=HWYJQtCJmcLuMYhCN7kqwiLoD0IWxarBq6wdP4qiIb/SR9RAgD6awNJPnEBf8FK/WbL2wFOyxkD6uOk/ahu7v1OEWUBnslvB/AUyQaxu98BHF2BBodwJwX07or91MUBA
lpc_rms=-29.34
offset=660
sample=Tenor_staccato_PP_G#4_RR2.opus
</region>

<region>
hivel=127
key=G4
lovel=1
lpc=U/a/QYTTTcLFDFVC4AdDwlDfKEI069/BozNXQSRgDsGVEctAK0yiwBvFAUEIpmTAVt6KvifG5z9cya7AOVvZQCLutcBh0/M/u8cBQGKAm8AHqohAFrAjwMc2Uz+sO70/
lpc_rms=-35.56
offset=260
sample=Tenor_staccato_PP_G4_RR2.opus
</region>

<region>
hivel=127
key=C#4
lovel=1
lpc=5Uo4Qp4s6ML98fRCrqvCwmpKkkJkwxbCXMlrQUVeo8FhmOxBoa/Qwf2c9EG7/7LBUeiYP6B6bUBQZ9vAv4qFQcG40MEBEr5BskNTwVZoBUGR457Ajs1/QAUCccCKU4Q/
lpc_rms=-28.40
offset=1314
sample=Tenor_staccato_PP_C#4_RR2.opus
</region>

<region>
hivel=127
key=D#4
lovel=1
lpc=rPuHQt33HsPAGRND9l/PwksMhEL0mq7BCCYJQTsN3sFgdzVCIhcAwi4h+0EWoJXBTIijwZA2r0EYQCfBx4huQZ93QcFN0q7ATix+Qcfep8AmF6nAZWlpQZ0StsH9ijpB
lpc_rms=-30.00
offset=1225
sample=Tenor_staccato_PP_D#4_RR2.opus
</region>

<region>
hivel=127
key=D4
lovel=1
lpc=s1R4Qo2MF8M4FANDaLeRwmJWdkLc9hvC6sOMQeNG38FuKeZB0AxlwW6400GkvNbBrvuywNH0kj8e4ZtBdKG8wLGV5sChqCtA//1hwH11KUG2ttHAcoWJPw9SdMABw0NA
lpc_rms=-27.87
offset=2677
sample=Tenor_staccato_PP_D4_RR2.opus
</region>

<region>
hivel=127
key=E4
lovel=1
lpc=w+NrQrtN4cIhd6hCpbpnwjYtN0L/JfLBPJ55QfGYjsEFdahBQDD4wMp8eUCxd9ZAZsIjwSRvfT8+pvM/teOsvxTKiL7kLQ1A/ArKwHCRckDVMFNA3QHavvdZH8GMMglB
lpc_rms=-31.73
offset=9373
sample=Tenor_staccato_PP_E4_RR2.opus
</region>

<region>
hivel=127
key=F4
lovel=1
lpc=6BpcQmpiAcON5d9CYmeAwp7dQ0LgeNXBu5zsQPoOlsFt1+VBEMCxwTzb1kHKqKLBg6jwwLp4hUEzryDBSDe/QOVEVz+KfEXAUagIQONJSL0mhQjADhy2v2ufOL/LOkNA
lpc_rms=-27.49
offset=4659
sample=Tenor_staccato_PP_F4_RR2.opus
</region>

<region>
hivel=127
key=A#3
lovel=1
lpc=5gcLQrwZmcI+GoxCZsJhwk5SREIUP9nBoVQlQT7JacFCSn5B6TojwV5cB0FV/xZA/8VFwfedMkGGvBjBIm/FQBduGD9IPF6/mF8Tv9MimsAwigtBgJv0wJHjlUCzqoi/
lpc_rms=-31.72
offset=967
sample=Tenor_staccato_PP_A#3_RR2.opus
</region>

<region>
hivel=127
key=A3
lovel=1
lpc=FNE/QrfGzsLvf6RCj0xWwqGrP0JEcd7BDf4eQfYRL8HY0ghBkViPwGp0FEHGSD8/uj8twWfxjL7zxMNA+DiewKJWL0FkRSHBuqPEQP/NGMHyOhpBjjFPwDVeOD/KO0i/
lpc_rms=-31.38
offset=1050
sample=Tenor_staccato_PP_A3_RR2.opus
</region>

<region>
hivel=127
key=B2
lovel=1
lpc=oJxNQSKrrMEh4FtBLt4LwTE1ykBBEJzAv4jpP92Cs77jrLo/niICwPvrsz2i0pRAEdmowOHpZ0BbZTvAOfoPQOzU6b7MhUm/wqwSPyX3Kb/rn7A/VrjAvzaIJz+e25O8
lpc_rms=-36.13
sample=Tenor_staccato_PP_B2_RR2.opus
</region>

<region>
hivel=127
key=B3
lovel=1
lpc=jXkaQkc/ucI3x7dCw2WGwksHTEKPR8jBrQgJP+SomUCCPI7AJwUrv8RQlUBKvgdBpiqMwefPIUGskuPA8HeQQB7qnD+SgBg+kmwTvqXejcCqcAxA3tBGQCBFq7+wx1u+
lpc_rms=-31.46
offset=538
sample=Tenor_staccato_PP_B3_RR2.opus
</region>

<region>
hivel=127
key=C#3
lovel=1
lpc=IGfaQe5aWcLWCiNC8Z7ewUrpu0FVoVzBP8WqQEdp4sBxZgBBzeVvwPvxtUCTAjs/ub+9wNX7ID/y2jc/6dSgv1KnP0B/OUDA0cQyQOWAg8ABQW9AEQOJP2KGyr/pdNC+
lpc_rms=-31.62
offset=7297
sample=Tenor_staccato_PP_C#3_RR2.opus
</region>

<region>
hivel=127
key=C3
lovel=1
lpc=BEbFQVQfQMLqGBNCbbvcwbUZuEHChl/Bg2zPQJlb6cC3oQdBYryfwGEJjUBrEg1AeruzwNaykkBAFKTAvQ4PQHCidD9BHXa/1e+EP2rzSsCOKDpAOw5hv/6Hmz72+SO+
lpc_rms=-29.44
offset=4660
sample=Tenor_staccato_PP_C3_RR2.opus
</region>

<region>
hivel=127
key=C4
lovel=1
lpc=wiOSQlkdB8OskJRCNGJCwm2uXUJt6NzBhZwHQdv6NMH6I1NBJBNXv2eqj0HZru3AiMtuwYVelsC6iotBzOZYwAsjEsEo5WjA9o2AQLjRukCC3+u/mWoqwLfLE0CXmpu+
lpc_rms=-31.63
offset=3780
sample=Tenor_staccato_PP_C4_RR2.opus
</region>

<region>
hivel=127
key=D#3
lovel=1
lpc=8PIBQuiTjcJUQHNCvuEiwmlX10HOs4HBtqgpQZBLL8HZcnhBKme+wN+wgEDtCoDAqk+rwA2l6kBLNorA1NzPv+QvBb+Sn/o+Ip/FQFadu8DuILlAHqTGwPRZvkCXXUnA
lpc_rms=-30.81
offset=6557
sample=Tenor_staccato_PP_D#3_RR2.opus
</region>

<region>
hivel=127
key=D3
lovel=1
lpc=k+8jQh7Ep8J7YnFC7QEXwpP2A0Ju2pfBdGwCQdNhBMGXtxxBXrYUwMC02kBZzarAtcwAwbe72kCHXXrAnofkQPe9NcFz2qBA1PKfQNygfMB094RAov6YwPK9MUCEeJ6/
lpc_rms=-30.87
offset=3172
sample=Tenor_staccato_PP_D3_RR2.opus
</region>

<region>
hivel=127
key=E3
lovel=1
lpc=NpsPQqF7f8K2/BBCm7e3wYUAiEGJ8kLAVlnFP3K1nMDoCIpANuhKP459vUDe5gXAKRXfwBDn9L5RE7JA+BKBvy5+iMBZWxs/Jmf2P2c65D83JAa/8x7hPttiB8CVaDw/
lpc_rms=-36.10
offset=6114
sample=Tenor_staccato_PP_E3_RR2.opus
</region>

<region>
hivel=127
key=F#3
lovel=1
lpc=iyQ/QjU6v8LJSntCU8kNwvFCCkIMrabBX1aAQd3cucFEUZtBlCMkwZidckETnb/AqgMwwTeL+0D/zo3AsZb9QJpHEMFZ6TxA1PJGPpO1g0DG1XrAX+KmQEdJucAvYd4/
lpc_rms=-31.83
offset=4362
sample=Tenor_staccato_PP_F#3_RR2.opus
</region>

<region>
hivel=127
key=F3
lovel=1
lpc=PdURQkCTjsIwNj5CWLnXwVsAhUHLS/8+icsCvz1RCcGlFfJAGdg6wMQhzECj5ZA/hOUwwZND0EBsQXjA2HNVQMhEub7W2LC/qFj5PlMqSj+TCFhArHOkwE5nGkBsHyK/
lpc_rms=-34.69
offset=3515
sample=Tenor_staccato_PP_F3_RR2.opus
</region>

<region>
hivel=127
key=G#3
lovel=1
lpc=+BnPQcNhYcK2NT1CRFDzwUHBzEF48YnBkVn2QFTv/8BAr69ADEjuP9zLh8DlWhpBDrVBwfQzxUAR1ua+9Pcuv9x5fj9wWAM/Br0ewPoGS79+eVRAtNAZwJfcGkDroam/
lpc_rms=-35.67
offset=889
sample=Tenor_staccato_PP_G#3_RR2.opus
</region>

<region>
hivel=127
key=G3
lovel=1
lpc=wbgDQm5jiMJ0hU5CLD0PwuPa60HW/TvBt4bPQCRBFcH7IKVA1/LhPm1kyT8nq/K+3/GYwOy0VkBNlEfAnwuhQJQuk8BGdmk/oORTQNZ5W8DH8VFAe/nov+tADcAiRQxA
lpc_rms=-33.53
offset=2432
sample=Tenor_staccato_PP_G3_RR2.opus
</region>

<region>
hivel=127
key=A#2
lovel=1
lpc=JUWKQRz1/sGD965BrEpQwRzaG0FyrN/AaO9VQI72a8BuZ5JA4/QZwHrdmj/FuF5AEzCcwB+sTECF0grAj5gFP9536z497kO+qwtQv0wETL/ZSjVAKEPyv3dBGD++L3e9
lpc_rms=-36.71
sample=Tenor_staccato_PP_A#2_RR2.opus
</region>

<region>
hivel=127
key=A2
lovel=1
lpc=EtIAQqK7eMIhpB5C3FnEwZqGsEGaFPnAS765Pnk/ib5o2IhAp7X/wDe1t0CXv0lAS9LBwOC6Oz/ULIW/T9UwQHbMCb8DuAjAL6ljQGDFV8C0Zg1A3pjEP64sEcCPjH4+
lpc_rms=-35.45
offset=3730
sample=Tenor_staccato_PP_A2_RR2.opus
</region>

<region>
hivel=127
key=G#2
lovel=1
lpc=i3DvQYUTUsJHx+RB7oxjwQaREUGXwam/y079v44fr778PGlAK7Z5wDphSUBzb9JAAND0wPshL0B6gum/EcEdQEAxFT/LnLzAjho7QK+h679FQy1ADeCDPmBBm79Em7M+
lpc_rms=-39.20
offset=5636
sample=Tenor_staccato_PP_G#2_RR2.opus
</region>
</group>

<group>
group_label=RR2_43-84
lpc_hicc1=84
lpc_locc1=43
seq_length=4
seq_position=2

<region>
hivel=127
key=A#4
lovel=1
lpc=KTKCQa53JcJ19z5CQtELwj+cmkGfhAXB7rBNP3aCEEBxUAnA8VtOQJ2lscCDV9FAzhCZwJoNNr/KdChBlg50we6ODEFWnby/I57KPos6x7/RvIVAOWLcwA8tuEAEubq/
lpc_rms=-23.15
offset=249
sample=Tenor_staccato_MF_A#4_RR2.opus
</region>

<region>
hivel=127
key=A4
lovel=1
lpc=AZHhQVrFhMLlV3tCv5kXwoamikE2K3VAAa57wTpqIUFCagA/il0jwJeMl0DKEyDBnRCNQNGiEkFPzXfBE1l3QfAeEMEYHXrAwsXzQNVLOj6EVmjAMr6bQHccBMED5qhA
lpc_rms=-25.39
offset=5623
sample=Tenor_staccato_MF_A4_RR2.opus
</region>

<region>
hivel=127
key=B4
lovel=1
lpc=tFA0QWvMzcEIG81B/p+NwdWJJUG2lKS/IIKKwCc0LkCGPBM+LiRFvz/SyT/6DvW+17KswEBPFEHw3ePAQd2zQExWt8CftE5AT6DMvt/Onz+vXN6/e/cfQFEVicCMMzJA
lpc_rms=-26.34
offset=476
sample=Tenor_staccato_MF_B4_RR2.opus
</region>

<region>
hivel=127
key=C#5
lovel=1
lpc=8dguQXRrsMHIpplBDBYxwSYSxkCkIYe/mRmEwBtO20B/M8jA6bA4QKYWPT6jEzM/0ytewIAaLUCki76+ra7QPyn1McAxGwm/rKJsQKtl1b+NX+u+HHk6QN7pQMDrPZ8/
lpc_rms=-32.10
offset=1589
sample=Tenor_staccato_MF_C#5_RR2.opus
</region>

<region>
hivel=127
key=C5
lovel=1
lpc=R2LqQEVGfsHG94VBp+pcwfKCOUHZo8zA3Ot4Pn7ohD+Jy369FeztvgQtiz/aS9i/ONekP3+pRL3Ovym+E2Xcvs1mEL65B+c/XzaZv7dr1z4mwTS/sWtXP7ehi75n84o+
lpc_rms=-25.99
offset=1098
sample=Tenor_staccato_MF_C5_RR2.opus
</region>

<region>
hikey=F5
hivel=127
lokey=D#5
lovel=1
lpc=PBgIQvT0hsJ9kT1C9YeQwb+Dt0FXd8vBR/Y7QW/7s8ArvFNALkDHQBau5sCBKLVAcKsewZzZ6kAal0Y/wzZgQF0Rp8ByITXAouOkQB5lET9rFYq/ZpBNQM+Y1sC7f6lA
lpc_rms=-22.93
offset=6064
pitch_keycenter=D#5
sample=Tenor_staccato_MF_D#5_RR2.opus
</region>

<region>
hivel=127
key=D5
lovel=1
lpc=az9NQYJA58HUngBCGDjXwb4NtkGaAYDB4Oj3QNIhpr9gDwDA3WdAQM4IR8Crzzs/iev5Pwwuob/pgSM/qWLJvu10B8BxsIdA8OSdv2u8J8BE0bFAuFeOwFGI1j9qXAY/
lpc_rms=-23.51
offset=165
sample=Tenor_staccato_MF_D5_RR2.opus
</region>

<region>
hivel=127
key=A#3
lovel=1
lpc=3VhnQbCNEsJwdStCt44JwkJYpEEkLQLByDK4P3P7isCJqBVBhbrdwJC5oz8mGZNAjZgCwQHY4kDGFi3As1vaP9rHgsDIS34/08TBQDkNHcH+RB9BlbsLweAgt0DaYNK/
lpc_rms=-27.52
offset=843
sample=Tenor_staccato_MF_A#3_RR2.opus
</region>

<region>
hivel=127
key=A3
lovel=1
lpc=LY7BQb8Sf8LUHZZCGThvwn2oGUK0PJbBFjXSQFoYB8EY3kNBpln7wHPpc0BWGaq/dHghwI0cHkCGyjpA31z+wAb2P0FBN1HB9AkkQeivCsFKJgRB2Ax0wBVdIb+Qt0I/
lpc_rms=-23.17
offset=1008
sample=Tenor_staccato_MF_A3_RR2.opus
</region>

<region>
hivel=127
key=B3
lovel=1
lpc=G69hQQQ5D8Jiqi1CY0YVwkKZ3kHg+ZvB1w9IQdHUI8HEfv1Aao5iwKCaB0AfvkS/HLakv+hHHb0AdkdAa45QwL6E1T9ny0TA5/+IQIEmuMDhQgRBJYHnwP0MG0DjjCo/
lpc_rms=-28.20
offset=717
sample=Tenor_staccato_MF_B3_RR2.opus
</region>

<region>
hivel=127
key=C#4
lovel=1
lpc=4bQIQgZWscKuftFCmHGwwldwb0JrbQnC002yQdAI2MHIsvxBHIO5wYOekkFHr0/BjWUTQCecTUDixA3AU2WBPyU/hUDKOkrBr5p8QfK/CMFd5gVAxO6UwGnfZUD+I1S+
lpc_rms=-23.71
offset=3231
sample=Tenor_staccato_MF_C#4_RR2.opus
</region>

<region>
hivel=127
key=C4
lovel=1
lpc=DpM3Qsnd7MLKyv9Cbtq7wjEGc0J2fgfCS964QTH/2MGoRcxBC3R1wXk/hEHG3ibBsSLywAq6R0FXE/HA6gvYQEKXG8FEWtFAufl3QN6148D2kl4/2SRwQOxuc8DQuMw/
lpc_rms=-24.74
offset=5956
sample=Tenor_staccato_MF_C4_RR2.opus
</region>

<region>
hivel=127
key=D#4
lovel=1
lpc=EPwJQtxStsLkX8lCEliMwg3mG0LYvozBCoP1QOe1UsGOcp5BgG5pwYOJaUGIGSfBbN8gwWYyoUFCSAnB3szyvlhI+D84T/bAwRs+Qb4HIsG1LpNAOJU2QIpqucA5iitA
lpc_rms=-26.75
offset=4748
sample=Tenor_staccato_MF_D#4_RR2.opus
</region>

<region>
hivel=127
key=D4
lovel=1
lpc=tc5UQjIv/MIVzu5Cy/OwwmZCfUJXL9DBeTRDQRxziMGGaEhBZELUwBwGQkGzNe++biyqwTWkekGkijHAk+0OQTh/RcF6V41AxocSQClkysAdhelAyb3ZwPOCJ0CEkUg/
lpc_rms=-28.17
offset=5507
sample=Tenor_staccato_MF_D4_RR2.opus
</region>

<region>
hivel=127
key=E3
lovel=1
lpc=+4JlQW0xDcI2yR5CIZIFwuye00GQUYfB2B6hQAZGi73aAjq+8ZRZQPd8gMAie6k/qsTEvrumaj70FqQ/jfwpwEj5+j92kgi/0QMoPZPU07+cl6JAMzS5wH5/K0A28QG+
lpc_rms=-28.37
offset=5132
sample=Tenor_staccato_MF_E3_RR2.opus
</region>

<region>
hivel=127
key=E4
lovel=1
lpc=sPsfQmXzz8KoudpCGryhwv8pi0L0LjnCznrwQAhs3b6Eb0VBZaIiwRBUdEE85cTBseKIQRR5/sDMChpByS76wEzeDUB0cTDA/uOsP0PaO8CylUVBe4E8wab+PUBB3dk+
lpc_rms=-25.43
offset=9265
sample=Tenor_staccato_MF_E4_RR2.opus
</region>

<region>
hivel=127
key=F#3
lovel=1
lpc=rGHlQf6il8LZO7VCi1eewqEJX0KK0NPBPwxZQS8OosFdP7pBlVWFwWoJMkFqnXg/YhJ8wfxahkESkgTBADN2QJFsPsC/Eu4+O5zav2O6OEB80G4+xAyZP7pua8Cf1No/
lpc_rms=-25.13
offset=841
sample=Tenor_staccato_MF_F#3_RR2.opus
</region>

<region>
hivel=127
key=F#4
lovel=1
lpc=psf/QXUvlcLg4JZCkNNLwsq5ukFuyck/kyVBwS53Mj+xTRdBBskcwfKsgEGclTbBSmrNwOCzY0F+qdnA1xkaQH7cdMCj2Cw9sFghQIzyo8DNzoFABPvYPwkoS8BSUw5A
lpc_rms=-25.24
offset=2047
sample=Tenor_staccato_MF_F#4_RR2.opus
</region>

<region>
hivel=127
key=F3
lovel=1
lpc=QTy5QeByZ8LVvoBCTwlIwp6H7UEJlz7B/G6MQEwP3sAJPCJBmWMCwQdi6EClZyO/jEovwW9WXkFeKQXBpkh+QGBjH8Bj7I+/VcAYQLvjlj7EOR7AwC+eQHKLtMDxcyhA
lpc_rms=-28.30
offset=4833
sample=Tenor_staccato_MF_F3_RR2.opus
</region>

<region>
hivel=127
key=F4
lovel=1
lpc=VsfMQWdFhsLcpJlCGeplwgJsAEJifyTBxOJGwMWSmT+3GwBBCF4gwZgxOEFU6gPBURBuwNWcSkGJz0vBiJ8kQX1DNsFjDOVA2zrMPwGhjsA0m8U/+uQeQJeSOsBy2I8/
lpc_rms=-24.06
offset=6984
sample=Tenor_staccato_MF_F4_RR2.opus
</region>

<region>
hivel=127
key=G#3
lovel=1
lpc=gw5aQTmwA8JKkA9C8S7kwa/Ai0E5F/bAep/MQLkvMcGC5lZBQeAmwTdZrUAosAhA54PrwF4/xUBvkSPAJlEIP9b+Jr/zr8A/o722v8DC5T4Z4Ce/w4NwPu1enz+zDVC/
lpc_rms=-34.20
offset=1256
sample=Tenor_staccato_MF_G#3_RR2.opus
</region>

<region>
hivel=127
key=G#4
lovel=1
lpc=/jUXQT0CpsHTk6FBPVthwcbIK0HZ1bHAnbz7v4YijUAnTBrANjkkvlDF8D8SIwnAwNtWP+oa9j+RJTDAQ5CHPjImTkDG0qbAW3CaQPV6ssCYAsNAeoYlwFoolL8TNNQ/
lpc_rms=-28.48
offset=7990
sample=Tenor_staccato_MF_G#4_RR2.opus
</region>

<region>
hivel=127
key=G3
lovel=1
lpc=vX6lQSssYsJ/Do1C6XR3wnWZQELTigjCcOmIQeXlhsCw7OO/9FGgQD+VPcDseKw+ZIcTvxfZRj+PgUq/1TvQP3WI978RQag/1g4qP1bBrsDqACZBB5oVwZ8gUkDkhKs8
lpc_rms=-27.59
offset=811
sample=Tenor_staccato_MF_G3_RR2.opus
</region>

<region>
hivel=127
key=G4
lovel=1
lpc=HONiQZanBsJn5w1CCfPYwW0lskEddnXBEDGHQAC3v7/lH11AoQQ+wDRdjECzPaPAKL68P/4TXEBtQHDApngdQE/bAcCbdAs/GGSRPwZqWMAzfJBA3K8iwGQxkL+06fw/
lpc_rms=-29.33
offset=5788
sample=Tenor_staccato_MF_G4_RR2.opus
</region>

<region>
hivel=127
key=A#2
lovel=1
lpc=2EYlQmQMwcLQ45xCXE8Nwgl4sUHfnzLBdsdcvxt2Z8B7mflAmrggvqkeA0CRanA/YysrwRqXhEBAG/E/0FeMQDWIqsDRIVk/VLiCv/vWikBV1KPAmQquP8MxYDzccCU/
lpc_rms=-30.71
offset=4915
sample=Tenor_staccato_MF_A#2_RR2.opus
</region>

<region>
hivel=127
key=A2
lovel=1
lpc=EpjTQW5AgcLg4nFCVaMSwnom6EF1ApLB9RHNv294y0CGJhTAw+LpP9QK4j+htypAXm1vwfOMZEGoEOzA0X88Qd9YXcG1KLpA7RRbv8rmaD9/uCvAycC2QBvCvMAH8BJA
lpc_rms=-25.26
offset=6698
sample=Tenor_staccato_MF_A2_RR2.opus
</region>

<region>
hivel=127
key=B2
lovel=1
lpc=+hkZQqzBv8JN5r1Ckw9kwv3UAEJmgoDBbZYUPJT9o78ekgJBkziQwMf3C0HFEfXAo2CmwPu9EEHigAW/A0okwAzRIkCFkgfBAlwPQZ8bBsFbfiZBsuDXwDAxeT82YxQ/
lpc_rms=-28.73
offset=5490
sample=Tenor_staccato_MF_B2_RR2.opus
</region>

<region>
hivel=127
key=C#3
lovel=1
lpc=q5gsQj5TysImrLRCkpxawvFoFkJPCcfBG2VPQT0zNMEUx3ZBOOU/wa7HhkHGo2HBTi89wJ1B/UA5/XfAgC2fQCOV3MCS8qi/cwbcQFRoZT//durAdj6rQAUA6b9s5M8+
lpc_rms=-22.40
offset=4137
sample=Tenor_staccato_MF_C#3_RR2.opus
</region>

<region>
hivel=127
key=C3
lovel=1
lpc=RC4XQlMmrsIB5pdC4WIqwgF/0kFfXJLBAHYyQSYHGsE0eg5BcE7/vkStokBexJ/AJD3VwCeRf0DEGJpALQKMwJqK07+9hYY+TRAxQFukfz/TzEDAQxkyQMuoA8BpsCQ/
lpc_rms=-25.46
offset=7355
sample=Tenor_staccato_MF_C3_RR2.opus
</region>

<region>
hivel=127
key=D#3
lovel=1
lpc=Rd+jQQkyTMJGu1pChr8dwrgQz0GunpvBn5F+QQjWdcEwwoRBAh1HwZBUF0EErgTBwzp/QDfY0j9BW2/AoJRKQBEFscCNMaBAwvExv3FtiL/UCqu/SbygQJCTp8DYNhJA
lpc_rms=-29.35
offset=4051
sample=Tenor_staccato_MF_D#3_RR2.opus
</region>

<region>
hivel=127
key=D3
lovel=1
lpc=06jvQZI8h8KPSWtCFrYdwl4W7UFY84PBMqcuQUdYhcGsA49ByNEIwU57MkHWo0LBrHcDP7diGz/kpPk/TsM8QNzNv8Aoo5g+6UQ7QDbul75o2xhAusA6wKN2Zb/Ydqw/
lpc_rms=-28.18
offset=4801
sample=Tenor_staccato_MF_D3_RR2.opus
</region>

<region>
hivel=127
key=G#2
lovel=1
lpc=EWmjQfiZWMIdyW5CnOEYwln2iUFYM4fAdDFdwC7N+j/EtvA/Vi00wDa/+kBA8P/APEXhv9n58UCnL/rAayA8QUekZcFLlh5B8QqkwHOU7z/HXw9A9ndUwAmOvD8lAFu+
lpc_rms=-28.34
offset=5303
sample=Tenor_staccato_MF_G#2_RR2.opus
</region>
</group>

<group>
group_label=RR2_85-127
lpc_hicc1=127
lpc_locc1=85
seq_length=4
seq_position=2

<region>
hivel=127
key=A#4
lovel=1
lpc=QqHRQOYVcMHyrJtBADudwehMf0E+ShrBx4KBQKSu4L9D7V4/dYqMvu88A78ZmK0/FMnBvwyBiT+I8JA+dr3Qv1wgqT+cgZC+U/MBv/NXjD8UCqe+zca+PHTjGr5uwNY+
lpc_rms=-20.12
offset=946
sample=Tenor_staccato_FF_A#4_RR2.opus
</region>

<region>
hivel=127
key=A4
lovel=1
lpc=1qHOQMq/acHMDo1BstKQwYG0hkGYry3BjL9wQH9aBMCzODtApENUwJe7qkB8eeXAD3HOQNtmgMDUbSBAhn+8vzkGlb8vvzpAZFY2wMLjHEAmasW/cDV5Psq59j6pzQs+
lpc_rms=-19.04
offset=531
sample=Tenor_staccato_FF_A4_RR2.opus
</region>

<region>
hivel=127
key=B4
lovel=1
lpc=qsqMQBEoF8HRsi5BqccqwRcLGkHqKsXAFvs4QFZ30r+qONU+dHy2P/XkEcDhk+0/sZGOvxAYCL0dpqU/Z9anv6oKoz6giLc/qDMAwL7LPz8F5l4/CN3Dv2Fftj+Evgq/
lpc_rms=-20.12
offset=618
sample=Tenor_staccato_FF_B4_RR2.opus
</region>

<region>
hivel=127
key=C#5
lovel=1
lpc=EAWoQLCsKMEgLE1Bu60+wToeBEHIgm7AlCahP29Inr+568Y/8hkPwIyKRUBGCgLAPwWYPNdRsT9SYcy/04ilPypRVb7m5Iy/kVPUP+lXg7/7/6A++SWdP24Pz79mTpE/
lpc_rms=-24.47
offset=52
sample=Tenor_staccato_FF_C#5_RR2.opus
</region>

<region>
hivel=127
key=C5
lovel=1
lpc=kI60QHDVP8HURWFBCIRJwTvsI0HgWKnAQ2PJvfHXzT/pW5u/f3qqPgEQHD0HVUs+/RcCwGEOYUDUulHAx1ECQJ3rqD4H57a/xML2P5A0xL/7hYM/+069PueMHL/OW1M+
lpc_rms=-20.54
offset=253
sample=Tenor_staccato_FF_C5_RR2.opus
</region>

<region>
hikey=F5
hivel=127
lokey=D#5
lovel=1
lpc=L14tQTb2qcE5ZbhBtDGRwXIINUEJZ6rA/0KbQC8r1sAPsOpAdWfAwO5KpD9mRoFAr1+ZwJCMPkCSVD6/JHhLv6IViT9woaA+ysydPxyBHMDDW1dAqP0IwFJDXz8SBC8/
lpc_rms=-19.23
offset=6406
pitch_keycenter=D#5
sample=Tenor_staccato_FF_D#5_RR2.opus
</region>

<region>
hivel=127
key=D5
lovel=1
lpc=rxasQGKuJ8GfTD1BcWAqwY81DEGwHH/AqOUrv55FC0AhItu/+OwHu0giwz+7g7W/HwAVPz6FIT/HsSLA25tXQMsEzL8kk+k+EHwpPkpvI79EFKo/38VJvnE+xb4ckBU/
lpc_rms=-21.30
offset=977
sample=Tenor_staccato_FF_D5_RR2.opus
</region>

<region>
hivel=127
key=E4
lovel=1
lpc=/Dr7QJEFlcERw7FBhNOmwRHhfEGelsLAFylYwLtIrEBPhkfAsYUdPjWchUDPtLvARqtgQIBJab+hSuu+YD8CQFzFOsCI50tAkLxzwEGSXUCIYtS/dHgVP38etr4pL08+
lpc_rms=-24.62
offset=7040
sample=Tenor_staccato_FF_E4_RR2.opus
</region>

<region>
hivel=127
key=F#4
lovel=1
lpc=18wXQchknMEWBKZBVc6ZwblZZ0GGkP/Ad++QQJeD2cBXXvlAmuuvwPMEmkDZ49C/Vt42wLk/Z0B7zLq/Sqe+PvcLpb/wDoQ/a7UGwJIVW0BiJxnA5jS2P8dPWr6wJYc9
lpc_rms=-20.55
offset=1765
sample=Tenor_staccato_FF_F#4_RR2.opus
</region>

<region>
hivel=127
key=F4
lovel=1
lpc=w4oWQdzom8HZ8qxBI86jwaPrZUGD9KvAwHwTPwU0+b+PlzNAEPIbwJ475D/1gsI/+0iewObpj0AqRBXAEloeP3sVZD+acS/A3GLtP/9IKT7LfYe+rOPhPyDiqL++y1Q+
lpc_rms=-19.70
offset=1876
sample=Tenor_staccato_FF_F4_RR2.opus
</region>

<region>
hivel=127
key=G#4
lovel=1
lpc=GfSeQLl4MMEDF1lBxTBZwXZ0PkGJYOzA/4blP5CkFT/1gy2/lBOyPKAYpj9mBA3AosINQNmCv78nFmg/3wsVvsRpkb+jphhAjvFWwIf+TUAIMSTAoKEAQG5krr+uemI/
lpc_rms=-22.65
offset=580
sample=Tenor_staccato_FF_G#4_RR2.opus
</region>

<region>
hivel=127
key=G4
lovel=1
lpc=lJHsQIgyjMEw6qRBGMqewUjAh0Ev5hfBRiYFQFoGkD4/Z6a9U/uUv5aeakBzlKzAv5SkQAFDO8D3uH8/mmliPSmcr78Bqa8/gFUpvU0RtL7Rigo+4dDBvcibVr2dRJ0+
lpc_rms=-22.89
offset=2522
sample=Tenor_staccato_FF_G4_RR2.opus
</region>

<region>
hivel=127
key=C#4
lovel=1
lpc=ztJzQQGnCsKW+yBC0dIdwgmp8kEg1WzBrIVbP69lhUAV4l7A0qUWQL0fNUBtQ8zAneG1QJ+BEL/SH3HA21aWQOl+AcGQ5hFBq363wKI26j9JkBxAw8mnwESSy0BlXE3A
lpc_rms=-18.06
offset=4342
sample=Tenor_staccato_FF_C#4_RR2.opus
</region>

<region>
hivel=127
key=C4
lovel=1
lpc=CPwoQX6PvcF8F9BBKbC3wWVfi0FaxOrAKM5FwNw+pEDkzjjA95ItQOnF1L/eOkQ+XRZuvp+qmj9lXyW+4a/1v/HFgD+vzKM/Py+5vwDDuT/btL+/GyKqPwX0hr8xAx4/
lpc_rms=-20.34
offset=5589
sample=Tenor_staccato_FF_C4_RR2.opus
</region>

<region>
hivel=127
key=D#4
lovel=1
lpc=OSgKQb9ulcESMKFByu2PwcnOM0H7KBfA8Df9v6aNtz4/leY/gH4EwEalzz90SxtAv5LZwOyX10DIaobAIeoVQPcLBsCRps0/XLK9v0drTD/T/L8/3sjAvzGHoz9+Q3K/
lpc_rms=-20.67
offset=665
sample=Tenor_staccato_FF_D#4_RR2.opus
</region>

<region>
hivel=127
key=D4
lovel=1
lpc=fn5hQbpLBsIZcRdCkpQJwsz7yEFlQgjBuva5wI5QBUHz1qHA/oknQLywKUCZGk7A8HYgwLr4zUCkD8PAy/SQQNUUUsCjoHe/qmAgQM0gBz/qaqC/FZHQP/V/4r+XUBo/
lpc_rms=-19.88
offset=6986
sample=Tenor_staccato_FF_D4_RR2.opus
</region>

<region>
hivel=127
key=A#3
lovel=1
lpc=Leb9QH4IjMEAhphBkXuDwedsIUGl6dK/GoRswDVzO0C+IEY/PGNUwA3QnkAtVYjAEW2zP5bCCT/Zt1y+778kvUOcYL/6f3U/vNUlv59ODD8sKCG+hKVRviD3lb64VjA/
lpc_rms=-22.82
offset=630
sample=Tenor_staccato_FF_A#3_RR2.opus
</region>

<region>
hivel=127
key=A3
lovel=1
lpc=0r7KQCBmTcHjgFBBKDA3weli90A0Dnm/D+eswP+AxkA1x4rAYaMlQIkwgj48RQ/ARn8cQJQLub8mjXE/zckuv3qsEb/AZ2U/X3HGvS8zS7+1I5E/q2+mvyfNiT/qrA6+
lpc_rms=-23.36
offset=5105
sample=Tenor_staccato_FF_A3_RR2.opus
</region>

<region>
hivel=127
key=B3
lovel=1
lpc=9nK6QEp/QMEaF0ZBS5YnwTLg5EC5w66/DDWXwL7luUCaJlnAN8qIP6xZZD9m6AzAa8YRQKSOPb/yBbi9kuVlv0dzwD8/WMu/PkffP67p0b9Ka9w+1u0YP2OPWr/FLDY/
lpc_rms=-22.52
offset=404
sample=Tenor_staccato_FF_B3_RR2.opus
</region>

<region>
hivel=127
key=G#3
lovel=1
lpc=1Bu4QKiSQsHLqFJBjldAwZTcDEG6eX3AL+ieviXuEED1IRXAYVUKQB9Vs7/sOCY+I+pLP0jx5L7+E929utMaP6ru4L8gKAhAduizv+cfDT+XwdE+AnHzvsEwQ75hV8A+
lpc_rms=-25.24
offset=4453
sample=Tenor_staccato_FF_G#3_RR2.opus
</region>

<region>
hivel=127
key=E3
lovel=1
lpc=k471QE4Jg8Gu34xB4R6CwUwkVkHDnh7BpeLBQIbiGcB4Wn4//esQv8mHZb51Pcw+lTBLPwUV3L+ZwQ1AZCndv/bJ8D6qSvc+0Y54v1mA3r1yGf4/pMT7v+gY7z6WFcI+
lpc_rms=-24.95
offset=6106
sample=Tenor_staccato_FF_E3_RR2.opus
</region>

<region>
hivel=127
key=F#3
lovel=1
lpc=GMTuQCNMc8G5rnNBxgBhwQLXOEGM8PXAAx59QM+Vtr/q4uY+n9mOP/qaTcCy2XtAm2UewJn8Gz+6eZM/9ulDwJjVXkCYpSPAdaTGP8Zwkr8JteI/4GbwvyWiQT+mefE9
lpc_rms=-23.34
offset=7259
sample=Tenor_staccato_FF_F#3_RR2.opus
</region>

<region>
hivel=127
key=F3
lovel=1
lpc=zxkDQeSGhcGVn4pB/NiFwZNSU0F/6trAIy+uP1RaEUAfxHvA0rGOQEYdf8BD2BFAHCPDvkwR6j4JqXO/vkGoP90lCMDYTtQ/IkYEPdLBDsDoIDJAioHbv53tGj+ILrU+
lpc_rms=-20.73
offset=878
sample=Tenor_staccato_FF_F3_RR2.opus
</region>

<region>
hivel=127
key=G3
lovel=1
lpc=4z3eQDhkZcFnT3tBkiN2wY78RkH3n8jAb1rAv8mbukBG6unA/PDkQDMirMA8NldAs5+Iv71UjL7uy6Q/ebOXvyiFVT/nuou8BPJyv35hXj9rNxy+fMYsvzpW3j6SjIg9
lpc_rms=-23.50
offset=6129
sample=Tenor_staccato_FF_G3_RR2.opus
</region>

<region>
hivel=127
key=A#2
lovel=1
lpc=qZNjQZNaBMLt1xBCZ8kFwkOR5UFpPajBhpddQcyCIsGn9RRB/Q+rwHAaiT/QRp8/7UW9v/i3uL0SBFpApR8BwctaEkGbAwHBRZXiQPWfk8A8EkxAuXTRv9kBpD44V2u+
lpc_rms=-21.41
offset=5127
sample=Tenor_staccato_FF_A#2_RR2.opus
</region>

<region>
hivel=127
key=A2
lovel=1
lpc=AxYFQRmIjsEYZ4dBVdVAwSilAkE4oaDAuv1QPzG9DUBqGMm/TdpJvzP35j95mBG/liPRPabXYz511TLAL9GnQOdvscBOQqBAtJ9CwGarIz/3spQ/21jrvy85eD8Hcje+
lpc_rms=-20.97
offset=5637
sample=Tenor_staccato_FF_A2_RR2.opus
</region>

<region>
hivel=127
key=B2
lovel=1
lpc=6cU1QSCuysF5wtJBF6C6wR6Wo0HwdX7Bs+QxQfhZHsGzJDlBcIUgwfGa3UCg5aPA6AaNQDGnDcBDTP892gmev+MUpj+Nk6w8g34Yvwad+T+0mvC/QqazP/ZJUb+J6ce8
lpc_rms=-23.04
offset=6886
sample=Tenor_staccato_FF_B2_RR2.opus
</region>

<region>
hivel=127
key=C#3
lovel=1
lpc=T02LQdTAJsIkeT1C8/wuwpDwEUKn4tfBquyVQYhRW8HtLCBBYqoPwAOhlMD1c9ZAyRi4wHRZv0CQQJ/Ak5mrP2rMOr5Y1Qs/c4ECv259RD7H8gE/xbfnPm3HC7/r+hW+
lpc_rms=-19.46
offset=6388
sample=Tenor_staccato_FF_C#3_RR2.opus
</region>

<region>
hivel=127
key=C3
lovel=1
lpc=Ab2CQYLfGsIF6CxC/dkXwhJT7EFTXJvBEucfQbdWtcAgI59Ap4JPwPhhIkBCDNu/0057v9g2pkC0pMjAhC2HQBFGgcAnjH1AfYa1vwQxkr+5lhxAJcukv9JBRr6o0FQ+
lpc_rms=-22.80
offset=7193
sample=Tenor_staccato_FF_C3_RR2.opus
</region>

<region>
hivel=127
key=D#3
lovel=1
lpc=lHj6QBEQjcGrJKNBZnOdwcGygkFeGzjBHvbgQBPeq8CYsMVAAlO3wBFmh0A+zFLA8XQZQDZAAL8I1Dm/GErAPge2Hb+P7aU+yR08P2wQj780mao/aJBBvnMz/L3wAFa+
lpc_rms=-24.39
offset=8504
sample=Tenor_staccato_FF_D#3_RR2.opus
</region>

<region>
hivel=127
key=D3
lovel=1
lpc=V8wpQU1kusHjVbdBHlmCwaEBBEEkmLq/XCh1v1rsSr9tbwhAkLw1P823g8CeE3hAuZXLv29zgj90v06/QkFKPzqOA8AeTUdAmaPmv/wvPb8Nk94/TpS4v1vQhD8ZhYS+
lpc_rms=-19.37
offset=6174
sample=Tenor_staccato_FF_D3_RR2.opus
</region>

<region>
hivel=127
key=G#2
lovel=1
lpc=ZEbwQGksgsGDrHlBYoIpweUvzUDYG4TA7XtcQLyGNsDQGStA39BIwFWz6T/ryARAPi5ywN0TAUC3dyq/SVR9P/PKv7+oMe4/cwiNv/ul7T0jyAY/hX+Wv/W+rT8VvRW/
lpc_rms=-17.71
offset=5986
sample=Tenor_staccato_FF_G#2_RR2.opus
</region>
</group>

<group>
group_label=RR3_0-42
lpc_hicc1=42
lpc_locc1=0
seq_length=4
seq_position=3

<region>
hivel=127
key=C#5
lovel=1
lpc=KAfZQXdkXMJAsydCqTa0wWpyYkFla1s/oMXZwEAnq7+2etRAOz43wXa/i0GA5QrB7PiawENP/kBW/e+/vRUjwI5pyEAJNJHBmYKqQegdGMG8k+dAMDilwNoqn8Dn5rlA
lpc_rms=-34.52
offset=50
sample=Tenor_staccato_PP_C#5_RR3.opus
</region>

<region>
hivel=127
key=C5
lovel=1
lpc=EN68Qb6OY8IXRlVCFrXEwRAo6UDfwNRAs5irwVm4l0FrFgbBaRB9QMFUPz8ZDnc/xvAtwbi1SkGG3JHAZVSxwEPCTEGGDkHB9tIEQZc13cAYjkxA5ymoQJka4cAo3DlA
lpc_rms=-30.73
offset=832
sample=Tenor_staccato_PP_C5_RR3.opus
</region>

<region>
hikey=F5
hivel=127
lokey=D#5
lovel=1
lpc=YomUQg/j5sKq7hJCqNtAwdHNU0Ju647B71OcwajjAsHfNLBBncHxQDfpC0GgTdXBwpuUwDc5SEDRiZhB/7+ZQJzzFcGz3mvBGpxKQcPDX0E1BHLAGrVOwTy0McFtRKtB
lpc_rms=-27.28
offset=6817
pitch_keycenter=D#5
sample=Tenor_staccato_PP_D#5_RR3.opus
</region>

<region>
hivel=127
key=D5
lovel=1
lpc=v39IQkH9AsMDYAdDU/CewqpCUUKn4wPCXNNuv8DmcEHXzoHB3ZWqQaDGHsG5qILALZfMv0/2UECW0UBBwH6wwdSW0kFe+qjBViZMP5tHWEHi6YrB6YXeQb4H4MHYyzpB
lpc_rms=-27.50
offset=87
sample=Tenor_staccato_PP_D5_RR3.opus
</region>

<region>
hivel=127
key=A#4
lovel=1
lpc=cFqIQc9CMMLNbEVC5pQMwuo5q0FIytTAeDoSwfkNSkFYCIPAaeoIwF6tp0AmOifBC+I0QXQgwsCWSWE/gfbHPxIQgL9l6T0+hUXuPwbFA8ERF3VBSNdnwc8b00BGEgu/
lpc_rms=-28.26
offset=456
sample=Tenor_staccato_PP_A#4_RR3.opus
</region>

<region>
hivel=127
key=A4
lovel=1
lpc=wQ8YQiqXvsJm6bhCkb1MwiAQ30EyWUbBGkquwPSStUBzfRRBp5xdwbspS0EtDi3BUqlIwDaBckFMuh/B4u/gP7vsJ74XPpDAfsheQRBvjMF1oLNBVRyswVk5m0Ag9VVA
lpc_rms=-28.64
offset=1474
sample=Tenor_staccato_PP_A4_RR3.opus
</region>

<region>
hivel=127
key=B4
lovel=1
lpc=sn5bQda+AMKCRPNBNBmRwfnWTUEBNojAXBrKwFRB0EDJyEu/dJBfwHOSjkAXj1C+xBe0wFW9zEDRxkvA7QTWPzRVzb/sSQI/ZFhrvwiSh0DozLPACv/JQKeHzcA2+1lA
lpc_rms=-34.70
offset=304
sample=Tenor_staccato_PP_B4_RR3.opus
</region>

<region>
hivel=127
key=F#4
lovel=1
lpc=NrAqQqWZvsKNfqZCJu9ewt3IEkIBNovBNlRKQQ1Vq8HAoOxBJ53NwTnj+0F+lJLBlVBUwTnVVkG0kgbAa5IWwMgvm0DiuwzBApocQfwZAMHJIhBBfts1wEqgKMD8La4/
lpc_rms=-33.13
offset=683
sample=Tenor_staccato_PP_F#4_RR3.opus
</region>

<region>
hivel=127
key=G#4
lovel=1
lpc=G0sEQoCOlsJKrYRCzqwMwo19wkGuzmbBBNcWwIZBnEACmfA/JWKCwI2vuz/+Cd1AfRNvwbtVakG1AA3BbKGeQIEMJT8lH9jATlRuP50OYz/HM6lAz6ASP7hu4cBif45A
lpc_rms=-28.81
offset=671
sample=Tenor_staccato_PP_G#4_RR3.opus
</region>

<region>
hivel=127
key=G4
lovel=1
lpc=kdWiQfBgLsLt8hhC0d3cwSYY1UFuYY/BsPu2QFPAusB5qvBA3cmrwIkSwUALuYjAIke1vdE9GkCATy3A4OxwQGngksBZWi1A+sVFv/xqD79Zc7a+LztUQDiCjcAaEjhA
lpc_rms=-35.22
offset=142
sample=Tenor_staccato_PP_G4_RR3.opus
</region>

<region>
hivel=127
key=C#4
lovel=1
lpc=AgUiQvRZrMKvQohCc2E8wg1RBUL0zqzAp90hwIDfMcEGAoBB2bgiwUXLkUG33xbBFNL/wBLviz98kto/ukY2QIZzJcAM7kPADs/SQCDTGsBeYKs/8Ht0P2/Ol8BYRRdA
lpc_rms=-32.32
offset=3349
sample=Tenor_staccato_PP_C#4_RR3.opus
</region>

<region>
hivel=127
key=D#4
lovel=1
lpc=2gF5QmXeF8P6/BVDtcTRwtIpcEIR+m/BR4xpv0vXe8EqdwVCufixwWbpn0FUvFjBZgqMwaQh60H+KqrBx9hyQXuf58BD7EHBG/q8QVJ9ZME7kwtBn/nCwBITh8B5959A
lpc_rms=-29.49
offset=1236
sample=Tenor_staccato_PP_D#4_RR3.opus
</region>

<region>
hivel=127
key=D4
lovel=1
lpc=2reJQlRvHcNV8vVCm0WLwo/LY0JltUnBYV4Owb2MHMEZSi9BsxTWP7nON0GZZT3BTdOzwU0yoUFVF1zAWTmCQdGLssGf5pZBG5aLwSzYgkEiGjPBHkOYQAwftMCprYBA
lpc_rms=-28.66
offset=2960
sample=Tenor_staccato_PP_D4_RR3.opus
</region>

<region>
hivel=127
key=E4
lovel=1
lpc=F4snQna6v8LDibtCJU+Uwk2wfULVyDDCV1arQbh5c8HRjGJBvcIMwbq2DEHO9q8+c8Iiwc4x30C6rIbAV6KEQJ2pBj/bMry/BKGYwG1TjUC2GIs/YhQGQGN6GMHlTtJA
lpc_rms=-29.47
offset=5543
sample=Tenor_staccato_PP_E4_RR3.opus
</region>

<region>
hivel=127
key=F4
lovel=1
lpc=ot12QvnyC8Py0PBCg7ynwsDXj0L2xiXCR9rpQRfXRsLPRlpCUpEbwqbOKkKsXOLB2eaCwVduy0G5l0LBj2pTQYsfZ8DzjuTA6CvmPtxW60ClpATBxg7zQDU9MMFplehA
lpc_rms=-27.95
offset=3192
sample=Tenor_staccato_PP_F4_RR3.opus
</region>

<region>
hivel=127
key=A#3
lovel=1
lpc=g0LvQd+4h8LK93VCMBgwwkhLFULhVKjBxUCvQP96AsGz+TBBw+LtwMur8UARiS7AzL2wwArJs0AjBKLABercQAYzLMDaXzc+8dr5vuSNnsAY7g9BsWmkwO6Rs7ysQX4/
lpc_rms=-30.31
offset=777
sample=Tenor_staccato_PP_A#3_RR3.opus
</region>

<region>
hivel=127
key=A3
lovel=1
lpc=jjP7QeuekcJHInlC83ARwnOV+UF8nbTBrd8kQbzALsEQOkVBNBbwwHX97EAT9E+/ll4LwWPClEA9ftC/tIwaQDjwoT+MKTu+NoOTwJb9fUDaIKA+jzJewP1qekCgYr6/
lpc_rms=-29.16
offset=4256
sample=Tenor_staccato_PP_A3_RR3.opus
</region>

<region>
hivel=127
key=B2
lovel=1
lpc=TyZSQWhHssGbGnVBU1QqwSIx80B2Gp/AvOEHQKCkOsCgCFRAXiQrwI7ujj+Zo1tA2ZKZwAvhkEC0HVvA76fiP4ey4rxZUH89K/BAv8CnOT5QByc/Lgb7vuQa2b0zMGk9
lpc_rms=-37.24
sample=Tenor_staccato_PP_B2_RR3.opus
</region>

<region>
hivel=127
key=B3
lovel=1
lpc=OFEDQvPZksLsoYNCyco2wiyjCEK1kDHB2Wn7wE+H4UBwGWnAvMY2PuVF2z+9LtlAvFBDwWpRAUFndqDA4iWPQMaryMBK3AhBNr/mwE2UG0Arq1xAMR6twHxnfUAIxI2/
lpc_rms=-31.73
offset=717
sample=Tenor_staccato_PP_B3_RR3.opus
</region>

<region>
hivel=127
key=C#3
lovel=1
lpc=zfHtQWGKZcLcOitCVdP+wd4xykHzgVzBIaO4QNQQmsAhpbxAY8+HwBy/oECddm1AqSoCwRRiT0B6vgjAzCsiv4aEFkAkY1DA8uSRQCI+c8Dm2zFAY3YfQGgOkMBOWYk/
lpc_rms=-31.27
offset=5161
sample=Tenor_staccato_PP_C#3_RR3.opus
</region>

<region>
hivel=127
key=C3
lovel=1
lpc=4MPRQYfVScIP/xdCyZPowTNzvUENx0DBNN12QOV/iMAEcaVA/sE4wB81DUBVM5ZADGIBwXXr9kAdmQPBQjicQEb9v7+pLW0/7IFDvnvEPMDwAZdASJ0jwNm4hz/x6jC/
lpc_rms=-31.74
offset=5094
sample=Tenor_staccato_PP_C3_RR3.opus
</region>

<region>
hivel=127
key=C4
lovel=1
lpc=hGaFQgL+HMPxRwxDelWywrK2gkI3ZQXCL247QOmel7/L/EpBbhShwZifJELr1A7CR2GHQMXqhD8ha5VAY8KmQBHlIcFmhyrAt7IsQW6KEcELTTNBwwuCwXPgSUHFFWzA
lpc_rms=-27.44
offset=4041
sample=Tenor_staccato_PP_C4_RR3.opus
</region>

<region>
hivel=127
key=D#3
lovel=1
lpc=xkT5QddrhsIE/WBCKwsXwuTj5EG5MaHBVzxDQYq2GMFSAVVBKCnmwJVVEUFr5hvBdQhcv0ZXUEBt4w+/dHg5wOKV+70IMWO/CYr5QHm0y8A0aINAjLlOwK5qVUBTWQjA
lpc_rms=-31.30
offset=6566
sample=Tenor_staccato_PP_D#3_RR3.opus
</region>

<region>
hivel=127
key=D3
lovel=1
lpc=jjsXQjpcq8KUHphCWl5Mwg0yC0JJOY/BL1X2QOl5ocDv/6JAPYA+vxcvxUDusqvADjTTwPqqzkCpU2rAMbZ3QN+BC8FFZyVB0xIxwNS5Bb/L090/T+mZwPBvt0B1kCjA
lpc_rms=-30.96
offset=4821
sample=Tenor_staccato_PP_D3_RR3.opus
</region>

<region>
hivel=127
key=E3
lovel=1
lpc=nuILQokPhcJWUyVCJpO6wUh5lUGmC+nAamj1P8qH2r+SVQNAj1vxP6I1g0DkeRS/IAr6wEINCcCpiQlBOn6fwBzIBz+zuSjAYkZBQCcSF0B+ejfAlCQ9QNpypL+b7jy/
lpc_rms=-34.30
offset=5312
sample=Tenor_staccato_PP_E3_RR3.opus
</region>

<region>
hivel=127
key=F#3
lovel=1
lpc=HJZdQnIg18ItXZFCO81Qwk6nQEIA77XBowFcQdFOs8F6TJ1B6i7PwJBMUUH7BpfAv8VowYQ8HEGbjJHAAdMqQPZ2AT+/Nh3AMveYP3I5Vz/6YGVAi/SYwPiJzT+Jxhu+
lpc_rms=-31.81
offset=2791
sample=Tenor_staccato_PP_F#3_RR3.opus
</region>

<region>
hivel=127
key=F3
lovel=1
lpc=NmYVQvUbmsJhml1CxsXywaLOz0FUYXPB4fuQQHGRB8EVfzVBLBSiwFetB0EDJDrAj1spwW5iFEGrndXACyLqQBZuOMAoPhzAGzcDQMSQvb+mBmxAQCksvoCf+b8+5j0+
lpc_rms=-33.39
offset=2845
sample=Tenor_staccato_PP_F3_RR3.opus
</region>

<region>
hivel=127
key=G#3
lovel=1
lpc=2KPZQTTnZML8JDpCiJwEwpMK8EH71ZvBBhAmQQMmJ8H6FehAcXFHwF/aakAh/WVAfs4BwVt/lUA/kEvAbPEgQLS+ur/kmVZA7JWqwA7I+T+jXB8/FKW8Px5wZ7/wsuK+
lpc_rms=-36.53
offset=248
sample=Tenor_staccato_PP_G#3_RR3.opus
</region>

<region>
hivel=127
key=G3
lovel=1
lpc=tJgPQlUrl8LK6GZCQd8iwibfF0JM15nBwR1EQReEnMGFwYBB7J+iwGKKkUDpI4e/mOgfwd+hBUGn7a7AP98sQa+eLMFsvUBAAvA3QIcBoMDGNehAGARbwNhjhsAX/2ZA
lpc_rms=-33.82
offset=1232
sample=Tenor_staccato_PP_G3_RR3.opus
</region>

<region>
hivel=127
key=A#2
lovel=1
lpc=CUdwQTrh3sFSUpxBcV0/wfsoJkHp7PvAZnhmQF5KisByQ5ZAssgWwFJ40j5L/3tA9nGbwDymUEAUHwfA/ELCP3WfEb+FjHs9vmn2vhZrA7++3cA/jkoNv2YPpr+0LJc/
lpc_rms=-36.15
sample=Tenor_staccato_PP_A#2_RR3.opus
</region>

<region>
hivel=127
key=A2
lovel=1
lpc=XQ9OQpXL9cLkkclCCyQ3wtotDkKWJtnBMVooQTz/R8GTxJVBv9uAwahOZEE2G7c/+vmewQUuokHg0oXBgDxnQf8XOsFrVx5BtOqqwOFuqD9Ph5s/714gwOZ/ML/7NNY/
lpc_rms=-29.98
offset=4170
sample=Tenor_staccato_PP_A2_RR3.opus
</region>

<region>
hivel=127
key=G#2
lovel=1
lpc=TUAwQrpowsJ+lZhCgH4mwoEZBkLNsbnBLbAiQQ4hHMFEpIBBzr9bwfIWBEEbFKdApQBpwQTmHUF90enAW+48Qe4ZJcG8KyJAUNKhPpfQ/7/ceiRAJ+AxQBNYysBc6DxA
lpc_rms=-32.49
offset=4792
sample=Tenor_staccato_PP_G#2_RR3.opus
</region>
</group>

<group>
group_label=RR3_43-84
lpc_hicc1=84
lpc_locc1=43
seq_length=4
seq_position=3

<region>
hivel=127
key=A#4
lovel=1
lpc=NfKeQXMRUMLtZnNCFvIpwlrAkkHavGO/UnEawWEtRkESJiTBjlsRQRqA7sA8T01Ad4cKv4XRCj4/5KBApRYzwbuyQUEmITvBaa4WQbthXcBvtTs/SacFwLr7FkDOR5u+
lpc_rms=-24.14
offset=751
sample=Tenor_staccato_MF_A#4_RR3.opus
</region>

<region>
hivel=127
key=A4
lovel=1
lpc=jNaGQafuF8I9vRlC6KLqwYR4c0GcNE9A6vhPwZRJKEGymlfADnwYwDIU4UDDIgnBEP2JQHGJAkBS46/AxHL+QPrF3sDg778/By91P1dS3T0rRnY/uQeMv/zXB8CTix1A
lpc_rms=-22.22
offset=1376
sample=Tenor_staccato_MF_A4_RR3.opus
</region>

<region>
hivel=127
key=B4
lovel=1
lpc=uKhCQd5E5cF+D+ZB3WeQwR9THUG5TjXAzf8fwCTbHUAGliQ/AqpdwDkDt0B857jADhqaPyBrmED9HLPAnC9IQPyqLsCHhiVA3ZM3PqzUgL+BiF291m7gP2zQWsCUlhVA
lpc_rms=-26.81
offset=848
sample=Tenor_staccato_MF_B4_RR3.opus
</region>

<region>
hivel=127
key=C#5
lovel=1
lpc=3sQlQVgQrcGGr6JBqd0+wXl7sUCpIRa/hvLRv6TfO0A+RHzAssAfQJY0jb/pq7o/eQm8vzR1BL6HHi5A75CLwB73ekB3mfy/upqGPsFy/j91B2TAVLm1QB2xnsCmOBZA
lpc_rms=-27.82
offset=25
sample=Tenor_staccato_MF_C#5_RR3.opus
</region>

<region>
hivel=127
key=C5
lovel=1
lpc=FsEXQc6TrsEiIbVBlOWBwSp6Q0EoisLAi9cSwPCXuEADs57A9cRsQD+/KsBvSwhAJlnsv7oMtT8LlYm/yeZdP4I3m7/CvB1AqzwfwBOx4D9+jLa/HdcIQEQ+6b/5jIQ/
lpc_rms=-28.68
offset=1261
sample=Tenor_staccato_MF_C5_RR3.opus
</region>

<region>
hikey=F5
hivel=127
lokey=D#5
lovel=1
lpc=20dPQr7owMLYNGdC3jqnwYP6/EFnA87BMuYPQRdQG8EFlDRA17pIQUJxWUBwy3nB4FA/wB8rzkDbhA9BuvjAPwELHMHtjgPAZjKQQCE4Bz4aksJADiIBwH6hD8GpWAxB
lpc_rms=-22.46
offset=7083
pitch_keycenter=D#5
sample=Tenor_staccato_MF_D#5_RR3.opus
</region>

<region>
hivel=127
key=D5
lovel=1
lpc=eM18QRfuBMI5Ou1BRnOSwWPuh0FR7FLBLpyZQEWzFb/L/YC//rU4QK9UIcCLro+/gBZbQPtDqD4hC2jA7mQvQOemIsDkLkNALv+sP7VFpsAjluNAk1C2wM60EkBvIDo/
lpc_rms=-24.24
offset=1448
sample=Tenor_staccato_MF_D5_RR3.opus
</region>

<region>
hivel=127
key=A#3
lovel=1
lpc=aVGrQaunXsJbjXtCHKo1wh5PyUGY+ErBWDj+QDXEJcHJiitBPtJ6wHG9TD+17sk/PB6xwB0WbkCmEwhACwHDv92RXcBfUgBAgjPNPp2j5T/P407A0lMeQE+9EL+rIIK+
lpc_rms=-31.11
offset=5558
sample=Tenor_staccato_MF_A#3_RR3.opus
</region>

<region>
hivel=127
key=A3
lovel=1
lpc=ea+0QT6Pa8JSr4dCQ3NUwh2SFEICDsTB8rlMQYChE8HFHw9B4TSjwA6uwkA8TAbBcZuyQHrrn8D57x5B/tRhweTmeUFai1zBtMkUQbHO8sABkhVBWGXbwEXLbj8NP1E/
lpc_rms=-23.27
offset=442
sample=Tenor_staccato_MF_A3_RR3.opus
</region>

<region>
hivel=127
key=B3
lovel=1
lpc=ag9lQcGoEsLldDZC7GEkwn8GBEJKos3BPwuTQYLpXsGBnQ5BNhdCwKB/Uz+/koY/S+BTwHyNGkCmf2k+fLBav1s7sr3y11G9SpYDPrf61r8IPVdA/x4CwASVkr9hA+8/
lpc_rms=-28.33
offset=521
sample=Tenor_staccato_MF_B3_RR3.opus
</region>

<region>
hivel=127
key=C#4
lovel=1
lpc=/lP7Qcu5msKkuqxC4SeJwvirGEIEozjBM1iDQNwcYsF61qpBmal4wfBmKUEhTUy/5bRMwZDQiUG2uV3B4kQXQVSrfL9sjdjAaGzVQJ7emT/Cv7jAxg0NQCoB8r/EguE/
lpc_rms=-24.20
offset=5326
sample=Tenor_staccato_MF_C#4_RR3.opus
</region>

<region>
hivel=127
key=C4
lovel=1
lpc=1CoEQq06q8I6a8VC8MqewlJVTEK94uDBfvPRQYGhFcIaEwtClNKNwZFl4EDV4JpAoTaOwciYjkEkMRrBkazBQAQCvMCkfLZAVC6ywA6JikAnmRjADHIHQOYgbcCIRxtA
lpc_rms=-22.80
offset=4923
sample=Tenor_staccato_MF_C4_RR3.opus
</region>

<region>
hivel=127
key=D#4
lovel=1
lpc=FXxAQtPc8MLzhvBCNdycwirUM0JiVpjB6wMsQdjwpsH67u9BOR/gwb6F3EFzFUHBp5CUwfidu0FQmwLBQaWGQF9zpz/+Z1rBii90QUhy58BBrGfAvIfzQKVFjsCVSdI/
lpc_rms=-27.96
offset=1526
sample=Tenor_staccato_MF_D#4_RR3.opus
</region>

<region>
hivel=127
key=D4
lovel=1
lpc=nakrQmDK4MJr+vxCBD3Mwi3nj0Kfxx3C++XDQdMZy8EM2JpBDVk4wYztd0G7JsbARwl2wc43nEG1lFrBNRVqQW2gCcHskCLAmla+QN/XHMGBu2lBPZ5qwVNNAUG6Oqy/
lpc_rms=-25.59
offset=5222
sample=Tenor_staccato_MF_D4_RR3.opus
</region>

<region>
hivel=127
key=E3
lovel=1
lpc=t9mUQWMWNcJ91UBC36sRwo+5tEHBlyDBXp2TQAmHAsFMtzdBP87ZwI7pBEBos9w/gSehwCC/T0C2+kY/EvQev8j1w79zk4g/SROnvkocFUDqFobASwSLQLV3m8A9CTdA
lpc_rms=-28.55
offset=6430
sample=Tenor_staccato_MF_E3_RR3.opus
</region>

<region>
hivel=127
key=E4
lovel=1
lpc=tt4BQguBq8Ii87tCpcyMwuFiY0J+lhDCLMluQP3+NEChYdlAPNfBwEiMQ0HV/6rByEOFQcPITsH3NXpBAYYYwQJ1vT+mV32+NsyovzILkr+FiP1AprYFwckbcEC50QS/
lpc_rms=-24.95
offset=7902
sample=Tenor_staccato_MF_E4_RR3.opus
</region>

<region>
hivel=127
key=F#3
lovel=1
lpc=DhTfQc1BkcLAzKhCTIONwqAfPULjGqPBsU8JQcT3UMETpH9BxNhVwQBpP0GJxC/AXCoiwVfjIkF8p13AY/xxQBV33sBg2rZAK8aawPD6TUCjR2a+BCkzQKStn8Ay+wZA
lpc_rms=-26.38
offset=4539
sample=Tenor_staccato_MF_F#3_RR3.opus
</region>

<region>
hivel=127
key=F#4
lovel=1
lpc=WYYFQqranMJP4ZlCOxpMwm798UGs1DbB2SAPvaWktMD05QxBbwR4wLkI7kBppcu/gyViwd5UcUFv0lbA7Yq8P23F88Ai4sFAv3eGwD/9oEBU6gbBMws3QU20+8BIdUlA
lpc_rms=-26.40
offset=2237
sample=Tenor_staccato_MF_F#4_RR3.opus
</region>

<region>
hivel=127
key=F3
lovel=1
lpc=FNHUQTK8j8JPv7dCt9Kmwgv1aUIRSQbC2VS2QTu44cHcSQpC8wXfwfALf0E7Ihg/GZWDwSzdnkH7IGfB2PcjQdOK1cCNsdg/FUyCPoZcakAZHhLBHkZCQQiSNcGBX6BA
lpc_rms=-25.73
offset=916
sample=Tenor_staccato_MF_F3_RR3.opus
</region>

<region>
hivel=127
key=F4
lovel=1
lpc=g7PNQXX5hcJ0AJdCJtFjwqM3DULJTX3BXVCYQD8cIcHaZJdBLGOPwWWhd0HWlb7AoRA5wTgiqEE6RJTBvJNWQYukKMHijpdAsnDWv4FBl0Cw5ezAt2seQYkFAsHIzypA
lpc_rms=-23.88
offset=6789
sample=Tenor_staccato_MF_F4_RR3.opus
</region>

<region>
hivel=127
key=G#3
lovel=1
lpc=YHSRQfXFN8IajU5CwdoiwjyXvEEGfAPBDxR1QCmRxcA2bdZA4BRrwOkhFUDOZY8/GEzEwEln30BxgJvA3PIQQEDaRT8DwITADQOJQMnZF8AE3wA/MnRsP6XBpr3DNvC+
lpc_rms=-35.77
offset=925
sample=Tenor_staccato_MF_G#3_RR3.opus
</region>

<region>
hivel=127
key=G#4
lovel=1
lpc=PlsZQcsWqsG9haRBrE5awZd/EkEzgjPAxdWgwGZ4t0DOn8i/yv0lv1PO8T8uy4PAQy+NQDiB57/j4Gc/P8LAv/h+oT8Kl6m/cmu0P8C6O8B5apNA6Vg3wI99GD2Z/oE/
lpc_rms=-28.40
offset=5432
sample=Tenor_staccato_MF_G#4_RR3.opus
</region>

<region>
hivel=127
key=G3
lovel=1
lpc=OvLDQckzg8Ig2JVCVEljwujzIEL0mcfBriCSQBUc00BAJbbAtiWbQH6vCcCHhZ4/tHSYwGVOtEDh7SfAPf11P5R6Er+I8wXAZWWlQKk+FMHgODpBrrXiwB+HqT91C4c+
lpc_rms=-28.12
offset=987
sample=Tenor_staccato_MF_G3_RR3.opus
</region>

<region>
hivel=127
key=G4
lovel=1
lpc=sxeMQRf/LMJO4DlCXr4KwhED4EHzT6DBhi3JQA4hIsA75OxAYAQDwdA/5UASSsvAzczZP9OLUECP6JU+GyqjwD5mJEBurIm+rI8/QBKks8Bn0ElAR070P6nwjcBV7jZA
lpc_rms=-28.95
offset=5700
sample=Tenor_staccato_MF_G4_RR3.opus
</region>

<region>
hivel=127
key=A#2
lovel=1
lpc=JkwwQu7g2sJrdtRCQfiKwi8NL0JrU3vBAw8KwF7Zpj810pZA2Z/GwLHbGkHH3mXAh5AMwf/9zUDsIQPAtZfCQBNAxMB3VY1AHeoPwVrXZEFF3V3B8x4YQQB7vcDTcxdA
lpc_rms=-28.94
offset=5914
sample=Tenor_staccato_MF_A#2_RR3.opus
</region>

<region>
hivel=127
key=A2
lovel=1
lpc=YpSVQVGLOsKe7kBCGPEEwsR0u0GGq03BqsBDwKi6HEEaFw7B1lUhQUPExcBfPQs/LvtbwC8k5kAx1VbAfnqCP0BNLsCmU+c+jVZXQMFij8DIWZNAiuJOwOVEaD/KWpY9
lpc_rms=-30.40
offset=3851
sample=Tenor_staccato_MF_A2_RR3.opus
</region>

<region>
hivel=127
key=B2
lovel=1
lpc=a7wfQhhrzcKtltdClqmUwvzFT0L/vg7C452jQQ/9p8FDHq1BSfBLwYK/a0FJIAbBKzwkwZqaZUF5M7rA/TGBQOiDTsBOCHLAQCaAQHXfwTxeP409ZHWXP920esD7lBBA
lpc_rms=-28.68
offset=6509
sample=Tenor_staccato_MF_B2_RR3.opus
</region>

<region>
hivel=127
key=C#3
lovel=1
lpc=fh0pQvLIv8IdJqRCMExOwoteG0KVPtLB1EmPQVANmMG1OaVBu+ZnwW+lh0HoVC/B7qiywCidCkGvGdLAyQASQRd/FMGFBJo/KZcHQG6Bo0A/ojDBF9UmQSfitMCuEbQ/
lpc_rms=-23.46
offset=5086
sample=Tenor_staccato_MF_C#3_RR3.opus
</region>

<region>
hivel=127
key=C3
lovel=1
lpc=NJf/QT41lcINEYpCxfMmwv5g00GqdLHBKPSIQZzTNcHKTgxB+y9QwI3DJ0DjeDw+uxo3wBEnHMBgLNNA8CvSwOeoKEDN2y2/R5hrQKKIjcC1oTtAI2a6vhuWPMDZ7RBA
lpc_rms=-22.85
offset=5434
sample=Tenor_staccato_MF_C3_RR3.opus
</region>

<region>
hivel=127
key=D#3
lovel=1
lpc=AHSvQdlIVsKdFlZCmjADwhYLfUHdORHB2r0MQaE7QMH1Vl5BFwgDwY+DsEAnh7vA1xSwP2iDZ0DEXADAiP7wvxUJnr/C61VAb6PDvrfV3L97XwRAb7+Pv0+mJrykBNk+
lpc_rms=-30.45
offset=6421
sample=Tenor_staccato_MF_D#3_RR3.opus
</region>

<region>
hivel=127
key=D3
lovel=1
lpc=qyPoQdxdfsIBZV9C/g4kwnws50EQa37B0Rd+QS9dt8GVwdJBWrecwb1CnEFREnbBL8nWP31wQz75YFQ/M2E3P7jAlb/fucC/qig9QOKL4T4kks6/z9ErQA58VcCFiKU/
lpc_rms=-29.34
offset=4163
sample=Tenor_staccato_MF_D3_RR3.opus
</region>

<region>
hivel=127
key=G#2
lovel=1
lpc=l+qFQZaxMsLte1BCEj4bwh6rwEG2jlPB10FzQDmX678oEoVAHYgnwG+uxz9eYxY+meHGwDOGK0GgqiHBP10gQfY5L8FHpepAVGCgvwXGKsCcWI1ATWx4wBUA8D85M52+
lpc_rms=-26.46
offset=6040
sample=Tenor_staccato_MF_G#2_RR3.opus
</region>
</group>

<group>
group_label=RR3_85-127
lpc_hicc1=127
lpc_locc1=85
seq_length=4
seq_position=3

<region>
hivel=127
key=A#4
lovel=1
lpc=PE/dQPdQecH2YZ1BvnmVwcf+WkGWL9HAHl5qP5Vk6T4b4vK9l+xqv+tD6j+htsu/ejakP2OM5r8BXWVA6BClwIwdkEBlxjPAhQ+gP7dpT7xfizY+JczIvY2Gir1KV/0+
lpc_rms=-19.57
offset=261
sample=Tenor_staccato_FF_A#4_RR3.opus
</region>

<region>
hivel=127
key=A4
lovel=1
lpc=lXPQQIaFaMHg54lBnTOLwQUTgEGnyirBA1KSQIxeT8C04IBAu86JwBghukCJjtrAYHnJQOktocAaBYVA7QtQwIK6hj9e5UU/SwDjv1xqAECjHGm/UBwFvqczjz7M1bE+
lpc_rms=-19.58
offset=906
sample=Tenor_staccato_FF_A4_RR3.opus
</region>

<region>
hivel=127
key=B4
lovel=1
lpc=beNwQDt17MBUCgBBITH5wJ3b3EAoAoHAcLD2PyXjor8O3Vc+j+QTP2Nhmr5VDgS+GLsVP18L1L+UIRVAYz/cv91rZD+mThi9n8KXPdE0ir96uwBASaHyv52MqT8akry+
lpc_rms=-20.32
offset=476
sample=Tenor_staccato_FF_B4_RR3.opus
</region>

<region>
hivel=127
key=C#5
lovel=1
lpc=r5adQJrvGcEBWjJBHSEdwY9iukA9Puy/Y89nvUUEED4glgE/VRuwv7bOFECP8hnAqKzjP3QasL7mmum+V4NSPxAoib8HWhs/sZGcPqBVC796wjk/Hsn+u+Jn+743CCU/
lpc_rms=-24.06
offset=127
sample=Tenor_staccato_FF_C#5_RR3.opus
</region>

<region>
hivel=127
key=C5
lovel=1
lpc=uOSaQGPOJcGsRVJBhkJawfi3RkGNuv7AEe1AQGU5or7W1vC/yndaQHVxjMAGf35AsEIpwFq+cz+4viA/KoeSvwgn+D40IL0/Llb9v4+J6D+MpoC/Ji/QPoOoKj5JXwy+
lpc_rms=-19.78
offset=1105
sample=Tenor_staccato_FF_C5_RR3.opus
</region>

<region>
hikey=F5
hivel=127
lokey=D#5
lovel=1
lpc=28w3QUKxvMEdvs9B9SOkwYJkV0Eh1PzAsHzxQGyyGMH6bRxBqQ/XwILKaT9T5HxAFEaJwCs75T+367w/fD5LwLXTUEBnXI2/1lnHP3jRS8BrAoBARIzpv0JAEj+fQws/
lpc_rms=-23.26
offset=5224
pitch_keycenter=D#5
sample=Tenor_staccato_FF_D#5_RR3.opus
</region>

<region>
hivel=127
key=D5
lovel=1
lpc=9nTQQDvCR8EKAU1B6O0rwSRQCUF/JJPAh5DjP7wjz7/ueBRAalU3wHheuT8m9YY+07sOv5CkAECrlCzAko2APx17lj+8bJi/yUPzPxO2JcBb9yFAC5iWv9I2ob6FiH0/
lpc_rms=-19.27
offset=913
sample=Tenor_staccato_FF_D5_RR3.opus
</region>

<region>
hivel=127
key=E4
lovel=1
lpc=OtkJQRjAp8G/FsxBPg/GwSXuqUFtU0vBXpDBP+D4REDkp5i/YSK5v9HLvEBeKTLBlcNDQYQmF8HRAvJApd/JwL7rekABsN+/eSeUP+qfjb/8QaA/F5D0vz07BkAaTl+/
lpc_rms=-20.44
offset=6082
sample=Tenor_staccato_FF_E4_RR3.opus
</region>

<region>
hivel=127
key=F#4
lovel=1
lpc=Ys8YQS/CmMENTZhBy5SAwU0AFUFTwQPAH9tnv3yW0r/2fVBApEfgvxrf8z/2SAw9+A4TwHyU+D9TMrO+kmM8v9W4yj7XS5C/ZuL0PnGjgz5rK44+xb2WPb6czD6CcR++
lpc_rms=-20.25
offset=1807
sample=Tenor_staccato_FF_F#4_RR3.opus
</region>

<region>
hivel=127
key=F4
lovel=1
lpc=qVE7QTk81sFoBf5BFT7+wQqGzkHKE2HB1AzMQNM4z8AQL8JA55R+wCOrF0A32wpA03HuwLmWDEFTCAfBL5sNQTdCCsFCrK5Ala1QwJb8PkC5gLy/Sfr9PxlBDMAW+G8/
lpc_rms=-21.73
offset=8469
sample=Tenor_staccato_FF_F4_RR3.opus
</region>

<region>
hivel=127
key=G#4
lovel=1
lpc=XouQQMpaG8ECADlB/2g4waeaJ0H029XAT1DYP4PQGz8mXqq/wSTHP6T1H79UKmq/YHADQKZgI8AWODRArMMWwF1SWz9soG0/nS0QwHT6GkDkXwDAvD/UP40Mjr8O0zM/
lpc_rms=-21.94
offset=576
sample=Tenor_staccato_FF_G#4_RR3.opus
</region>

<region>
hivel=127
key=G4
lovel=1
lpc=CBPmQOYghsEU3JpBlqqPwelPYUG9bt7AooSnP90gGr8y3AJAnaphwKbJlEA8/WvAcCF3P6q42D9foQ3ADLW3P3X1T783FR+/pAjfP5Jxkb/buIU+SGNQPuFm9L5DSfM+
lpc_rms=-22.10
offset=1671
sample=Tenor_staccato_FF_G4_RR3.opus
</region>

<region>
hivel=127
key=C#4
lovel=1
lpc=4A9HQSCu1sEKe/FBBCDtwSY11kGsK43BItnRQAvM9L/jiIM/Nm7QP3YTwr9HCbC/UZZhQD/VZMDobKlAsB7wwLPVrkCZXqm/pD1Cv5ysCz8vg4M+WqSGvVq/Hj+lxbo9
lpc_rms=-16.62
offset=3224
sample=Tenor_staccato_FF_C#4_RR3.opus
</region>

<region>
hivel=127
key=C4
lovel=1
lpc=KyAYQXYEosE+I7BB4t+lwW/peEEprYTAQ+oFwWhDUUFCRjnB4gMHQQWAG8CJkCvA7PaTQLSjQ8D11pY/ttbGvxUKdD+JQbe+LantP2JZLMA0ef8/U6Axv68+oz4rMtE8
lpc_rms=-19.79
offset=6561
sample=Tenor_staccato_FF_C4_RR3.opus
</region>

<region>
hivel=127
key=D#4
lovel=1
lpc=CSP9QNgVhsHykJJBLXOPwVJtUkGicpPACNnbvzcJaEAknmjAroMOQIvlhD/Er92/HiN6vRsXqD+Tg/C/xToiQC1YY8DdKyZAp750vyrYiLyFFgFATNYFwDu1tj8EylS/
lpc_rms=-21.21
offset=6117
sample=Tenor_staccato_FF_D#4_RR3.opus
</region>

<region>
hivel=127
key=D4
lovel=1
lpc=fVlHQUnZ6MFEHwVCXID7wWpXwEGcdTHBTiuzvryVZEDhQyHAtjCiP3vJKEDkHDXARoA3vj5xkz/GJ8k+Pr7Dv6H/Sz5r1vm+XI8BPlk2/j+Geu+/u9DCP5/dSb801z68
lpc_rms=-19.30
offset=1541
sample=Tenor_staccato_FF_D4_RR3.opus
</region>

<region>
hivel=127
key=A#3
lovel=1
lpc=8mffQP4AecGka49BUcmGwfPUPkEnv47ADt1+v6gEwT/LO9I+AV/IvyLrG0APdue/SOQpvtbNmj8jYsi+WZXtvmYu+L0Wdi0/ea+Qv/953j9kf8q/ANh/P6ApfL/xgFE/
lpc_rms=-23.75
offset=179
sample=Tenor_staccato_FF_A#3_RR3.opus
</region>

<region>
hivel=127
key=A3
lovel=1
lpc=NrHWQExsXcHOu2BBlgtEwcw3B0Fcx42/MMG0wJOxxEBHkXPAEQ+5P4A6zj+OtiLAQ/55PweMgz9x9OK/e37zPx/6pr8wBkS/PuUBQDnYGcBAgRFAkzzUv1JiaD8hWo+8
lpc_rms=-22.73
offset=880
sample=Tenor_staccato_FF_A3_RR3.opus
</region>

<region>
hivel=127
key=B3
lovel=1
lpc=20q4QNt9RsEWiF5BtntSwZ6aLkEGX9DAMHS3P9dF/T23iaQ+zkW6vupAMz+VWKG/UNysP4E7Or9uCmk/lD7uv2FnAUBgqfy/v1UfQP0lSMBsOTJA66r2v0Sqjj8I9Su+
lpc_rms=-22.87
offset=765
sample=Tenor_staccato_FF_B3_RR3.opus
</region>

<region>
hivel=127
key=G#3
lovel=1
lpc=WOrHQDWpWMGptmxB2TpSwWr2D0EYeknAqGDHv03RTEByWCvA8wUEQCStWr95ujS/UJfrP3nc/b+1LuE/t6xuv/BFQr/e9sc/dmyTvxxVlD6ERYI/CSrAv73eLj9F2AA+
lpc_rms=-24.55
offset=1400
sample=Tenor_staccato_FF_G#3_RR3.opus
</region>

<region>
hivel=127
key=E3
lovel=1
lpc=tVfjQL5VdMEQmoNBDChswT8sO0ETFAfBOq+jQLMT+L/aDSY/1fqovo3+zL2/vgu+qF6oP1M1EMCMKx1A5Oynvyt8gr6glLo/UmgFwP1Lsz+f8BO+4niPve35Hr+8wzk/
lpc_rms=-25.07
offset=8151
sample=Tenor_staccato_FF_E3_RR3.opus
</region>

<region>
hivel=127
key=F#3
lovel=1
lpc=j0HpQGVia8HBC25BtbdiwdnaOUFrat7Aou0PQNw7Qj93Ivi/NQxBQFbWb8ApVmVAZGMIwLhVID8B9to+P4S6v4OHmz/wdAq+1ngYv4AEED+xYNs+7m5Wv/inSz46l4E+
lpc_rms=-22.80
offset=1445
sample=Tenor_staccato_FF_F#3_RR3.opus
</region>

<region>
hivel=127
key=F3
lovel=1
lpc=sdYQQehqmcFZLKVBdpOgwapsgkGGVBrBpvp8QEwiZb2GxMC/58sLQK2ZHcCMXo4/OBw5P9lSyr6vT1m/0isTQN5+bsDpL3JAUfIowH8lzL3Xh9k/eVqiv2uYLj8bCkY+
lpc_rms=-22.34
offset=5942
sample=Tenor_staccato_FF_F3_RR3.opus
</region>

<region>
hivel=127
key=G3
lovel=1
lpc=/iXZQKOQYcG1ZGlBNilTwWmUJUHmgZfAKbHbv/07nUAltMHArQO8QEjcdMDhLMA/w4hgPwSOJsD04TlADyEOwHZvSj98MKc/XBLiv8rnNT+YmKQ+ZMJ9vnKVKbzzAN69
lpc_rms=-22.98
offset=5532
sample=Tenor_staccato_FF_G3_RR3.opus
</region>

<region>
hivel=127
key=A#2
lovel=1
lpc=Dk9tQVbzCsKn+RFC2Bz3wdoM0EGwNpXBdQogQQzHycCGkNhArxP5vxHwh8AygNVAf6XCwGDYhED8vY6+Z+O0wKoq6UBa4q3ADCR7QG8BkL+99OS+SXdxP/GoWr9D6pQ9
lpc_rms=-22.28
offset=7183
sample=Tenor_staccato_FF_A#2_RR3.opus
</region>

<region>
hivel=127
key=A2
lovel=1
lpc=v9L+QJcljcF8dpVBTt6AwbN0UUEcbQ3BCCJGQA8NhD0eGGQ/G1UlwLONDkBCCTO+BoRfv+CbA0BXBIrAnEuhQC0gbMAVmgNAd86avXZYvb+xyCRA6vsnwIowrj+kKrC+
lpc_rms=-22.60
offset=7530
sample=Tenor_staccato_FF_A2_RR3.opus
</region>

<region>
hivel=127
key=B2
lovel=1
lpc=2c44Qfsm0cFMguBB2X3KwWGJrUHlQ3zB47EVQV5y7cAkURVB3K79wMWzkkABaRnAs4DWP41MbL6R0i6/F/nCv2RCKECXcw3Avi72P8RtNT4IQNC/eSkNQNZ+vb9YpAE+
lpc_rms=-22.71
offset=5534
sample=Tenor_staccato_FF_B2_RR3.opus
</region>

<region>
hivel=127
key=C#3
lovel=1
lpc=X/WQQWKmLMJL9EJCT2AxwjmLDUJPGsPBMSd2QQD2KMF1XRBByyiXwMvvdz9LcNC+mc1RP9ADwT/fuVTAxTLxPxTSeL/xxbm80d58P+jDY79537E/xo9qv9Y2JD/oDAq/
lpc_rms=-18.69
offset=4725
sample=Tenor_staccato_FF_C#3_RR3.opus
</region>

<region>
hivel=127
key=C3
lovel=1
lpc=g8JgQSrFAcJQ0Q1CSzD8wamIzkGNbpHBXI8qQeE37sBmvOBAVNaVwKpWD0BPR0K/+2i5v1VSskC+CN/AlmKNQEszTcBEdYFAt9hPwJLWFECiDBnAkdkkQCbVCcDe3GM/
lpc_rms=-22.01
offset=7912
sample=Tenor_staccato_FF_C3_RR3.opus
</region>

<region>
hivel=127
key=D#3
lovel=1
lpc=zgX2QAZ4iMFzVZFBTnBrwe35FkESsYTAOwN5P/FFyL/KoVdAbFwfwEvnoj4vOkE/3BJbv34qcT98xQm8yl2uv8vW1z7zun0/HTecvyg+Rj/LO/s+v4B0v2oPjz8sKhu/
lpc_rms=-25.09
offset=6868
sample=Tenor_staccato_FF_D#3_RR3.opus
</region>

<region>
hivel=127
key=D3
lovel=1
lpc=6JMuQTDoxcGnGNBBogeiweNYMUG9zS2/0Ku8wBX/kkACotO9bKeSv6lDNj9pmNg+k0ghwHZvm0DkR4rAhd6qPyEAKz/vn+S/tgpiQLk2l8D474lA58BGwPx08j/ZHwm/
lpc_rms=-20.58
offset=6866
sample=Tenor_staccato_FF_D3_RR3.opus
</region>

<region>
hivel=127
key=G#2
lovel=1
lpc=KhHsQOD2dsHMkVdB1NbpwMezH0AikNm9m3gevpKBwDw3Ijc//LUYwKm7JEBJ8HE/x5ySwNt1mUAW/j/A/PiwPzEcvb6axiU/kmExvxsIuj65jg2/bAw3PyWUSb759rO9
lpc_rms=-17.58
offset=6001
sample=Tenor_staccato_FF_G#2_RR3.opus
</region>
</group>

<group>
group_label=RR4_0-42
lpc_hicc1=42
lpc_locc1=0
seq_length=4
seq_position=4

<region>
hivel=127
key=C#5
lovel=1
lpc=VLuvQfBjLMLcaPdBTeBxwT3PHUElBsk+yDiXwKl9i8C/uUBBgW5XwWPtNEFg3Nm/LZLFwKpC3UAgKEDAp6X/P/B9Cb9OsyTB6JBVQZRRJcAKcLG/hfeMQPR9FcEzx7tA
lpc_rms=-33.22
sample=Tenor_staccato_PP_C#5_RR4.opus
</region>

<region>
hivel=127
key=C5
lovel=1
lpc=SmJvQUwTCsKPdAVCZaWSwdYxAkFA+wg/NRAmwYd3S0HX0AnBNzAqQOG0K0BwAhnA/p06v1Fs5D9illY/kBjiwC0lIUGwdt/ApCyxQAeXq8C2lhlA3CU2Ps3jtT+dkHG/
lpc_rms=-29.92
offset=358
sample=Tenor_staccato_PP_C5_RR4.opus
</region>

<region>
hikey=F5
hivel=127
lokey=D#5
lovel=1
lpc=IaehQYYMK8KuoiZCIlXwwTu5skGBepnBGseiQbxMmcGdvIlB/XREwYFggkB/KJy/h23VQCTAE8G+W5ZA42oTPx0zXMDK6NdADeX6wD3tMUF0GyTBo5HuQLex88AQR6FA
lpc_rms=-26.23
offset=4023
pitch_keycenter=D#5
sample=Tenor_staccato_PP_D#5_RR4.opus
</region>

<region>
hivel=127
key=D5
lovel=1
lpc=vyriQYMeisL5JnxCffnIwRG3hUGp48fBGxsuQd3adkH3uNDB9pKUQdsN58BnbydARTGMwAgpyEACC66/IdMFwR1MZ0ErDQHBkmMVwHkOsEDY2ZDAANH7QEQV+sAdEFdA
lpc_rms=-26.01
offset=89
sample=Tenor_staccato_PP_D5_RR4.opus
</region>

<region>
hivel=127
key=A#4
lovel=1
lpc=cn61QdExYMLf7FxCyY0Gwj5hrEHDJMLAw7FCwbLlREGzkhDAOkaKPZ0DDb8RI6y+nPiCwBzS5UApn6LAERmQQJxFuL9PcAvA8w4fQE0CAMHaUWVBoDj0wHZvDMCbADpA
lpc_rms=-29.81
offset=988
sample=Tenor_staccato_PP_A#4_RR4.opus
</region>

<region>
hivel=127
key=A4
lovel=1
lpc=fr7uQby3lsKexZZCPrYwwkAgr0F6RSTATppowRLZQEHNJU1Akz00wctZj0GmV6nBKpDMQHDK90BU/2XAmvf1v+Ttjb3PLLvAbRWZQV2EiMEGgy9BQ6JBwQpor0BornM/
lpc_rms=-27.59
offset=847
sample=Tenor_staccato_PP_A4_RR4.opus
</region>

<region>
hivel=127
key=B4
lovel=1
lpc=2JyQQUZLMsIw2DJCatTzwQJrxUGFXm3B0+3nP5negT9dJb0/nLZGwBvPYUDIBn4/7Hj7wHsNAkFc8HjA0ewHQLogvL/5l5I/b85avlzAhL8bnW++MJhMQL8tYcBWN98/
lpc_rms=-32.49
offset=137
sample=Tenor_staccato_PP_B4_RR4.opus
</region>

<region>
hivel=127
key=F#4
lovel=1
lpc=cwYmQuFNyMKu3rVCI3hgwvbcJ0KOYbTB888SQQHSpcEy/upBubXIwfmHE0JdQfjBo3DQwGWZmUG9XOzAZ8QVQNyHTz7qVNXABviBQMkbd0Ao9yjAVYwCQYsHhMG5kgdB
lpc_rms=-31.42
offset=2127
sample=Tenor_staccato_PP_F#4_RR4.opus
</region>

<region>
hivel=127
key=G#4
lovel=1
lpc=Y2zHQXXpS8Ko2ShCpv+7wW+kjEEG8BfBCPiEwGi/P0AuAL9AnXLzwF92zkBjbUfAWG7kv4G5N0AXD+Y/EMSmwIVBA0FF6j3BxYr4QNClqcBEDaZAgnEgPSemd8B20HJA
lpc_rms=-29.25
offset=1613
sample=Tenor_staccato_PP_G#4_RR4.opus
</region>

<region>
hivel=127
key=G4
lovel=1
lpc=Z9q0QTaITsJypUVCUSgRwkVMAkKGQLfBRUYUQW5nBMHSBRtBAiTBwIkzoEDIM5u/qazCwDM26kADf5bAB5WOQEqWi8DlQFM+yaGQQPLSisABtac/BmjEP4MiJMA5+ug/
lpc_rms=-36.50
offset=4221
sample=Tenor_staccato_PP_G4_RR4.opus
</region>

<region>
hivel=127
key=C#4
lovel=1
lpc=G5MoQjL5nMKZ5jlCn8QTwrUIJUIQybTBiqWkQTIe2sFgG7BBgBQtwSvKlUF0oTPB4h32wDqxn7+fTGxAaMrVQAtO1MCBUWa/kt2MPoGrp0CJTj0/YPKmv15x5sCrupxA
lpc_rms=-33.28
offset=4811
sample=Tenor_staccato_PP_C#4_RR4.opus
</region>

<region>
hivel=127
key=D#4
lovel=1
lpc=zM2GQne/HMMh4A1D64S7wg4tV0IZ8mLBSDHXQGSRwMH/VA5CjHidwS/DmkGa2kfBTFCjwYBXw0H6/DjBAnglQaSb8cC+CB/BuVG0QTXgZMEkHc1AHdPovRsbJsGGuu1A
lpc_rms=-30.56
offset=932
sample=Tenor_staccato_PP_D#4_RR4.opus
</region>

<region>
hivel=127
key=D4
lovel=1
lpc=VGySQi78LcNCbh1DDDHYwst3k0KsApnBXPpwP9p0dcHk3qJBLWqSwbMhF0J5teLBGiRmwb1PFUE/JVZAi0IuQP6WAkD4ZCXBDXYhQbuuyb9Ztrw/QN84QHjuKMGl0KVA
lpc_rms=-28.81
offset=1358
sample=Tenor_staccato_PP_D4_RR4.opus
</region>

<region>
hivel=127
key=E4
lovel=1
lpc=Eqx5Qngv88IIGs1CbSmiwn9AgkLoIyvC5leSQV47bsG+fIpBsTpFwe4sP0G+x9xAFPmVwXB6lUFnHZDBFuUoQcjubD7orWDACG2iv9vPqj0FyY0/E6KPQEXARsHoPRVB
lpc_rms=-32.03
offset=2820
sample=Tenor_staccato_PP_E4_RR4.opus
</region>

<region>
hivel=127
key=F4
lovel=1
lpc=mX1dQs7T7MJjnL9Cf++EwizRT0JQppfBonRaQKvNd8FfCclBka6/wfv2+EFcXJ3Bp6xIwa2LvEGQiZvB/HWAQVSOp8A5V63AugQxQcEQAsGNCyE+lirEP7x328A6PtZA
lpc_rms=-29.19
offset=5327
sample=Tenor_staccato_PP_F4_RR4.opus
</region>

<region>
hivel=127
key=A#3
lovel=1
lpc=8vzvQaCkisLV+YNCyZhBwo6RF0JBk6/Bn4MTQRRpI8G+eEBBKAUjwZrMAEGFdny/QYRuwJLNDUDH6r+/GhauPykTKkAAGsrAqOF2QJs/D784zghAc+ZQwKrOYT6U4po/
lpc_rms=-30.08
offset=977
sample=Tenor_staccato_PP_A#3_RR4.opus
</region>

<region>
hivel=127
key=A3
lovel=1
lpc=s+0UQr6nsMIrJKVCPuxkwgMmRUIVphDCyRKlQWsol8G7c5BBbPFiwWsGdEEkbtfAXsDGwBGnUEA4R/c/0pRxPzoBz77bkIO/gELtPg2QIsBBWb1AjHYIwOrCh8AMYjhA
lpc_rms=-29.03
offset=1283
sample=Tenor_staccato_PP_A3_RR4.opus
</region>

<region>
hivel=127
key=B2
lovel=1
lpc=oZyBQW4AysGExGhBZ3gowQLM00DikEfATOjYPiiqZL/st/U/bb/bv+kaQT3Ljp9ALoeZwPLKdUBwuC7ATdLjPh6BpD9Qsmm/zldGvdNCZ7+iG58/plJhPtcB3b+NuIE/
lpc_rms=-36.74
sample=Tenor_staccato_PP_B2_RR4.opus
</region>

<region>
hivel=127
key=B3
lovel=1
lpc=TyBUQhfM2sIhSLdCSnyOwlTRZ0LO1snBGo5BQDZH2b/f2g2+iTrjP0j+6D+6V4hAvnb5wKdAUL/rIKtAxlr6wHL8CUGf/aXAnl06QOsRtsD9QBZBXzRPwF7ou78iUkI/
lpc_rms=-34.54
offset=315
sample=Tenor_staccato_PP_B3_RR4.opus
</region>

<region>
hivel=127
key=C#3
lovel=1
lpc=4QTcQTq+W8J9OzRCfmcIwiYl0EFn027BELTYQIKR4cDgKchAk5o8wLAwUEB5wLBA7LgswVPW6UBV4HrA7E4YQD/Beb/ApX497e08P4hyhcCNBYxABoLavQxx1L+DDwc/
lpc_rms=-31.75
offset=4483
sample=Tenor_staccato_PP_C#3_RR4.opus
</region>

<region>
hivel=127
key=C3
lovel=1
lpc=K1TcQdhyWsIexCdCUnT8wVzm40HGcZDBvoAGQV/4E8GnQiBBYLy0wEy2d0D+botAjr4BwZMC1ECnVMTABLsqQI/cHD+hCZC+d8W5vzRO2b97nkFANwL6P8O5YcBm9Ic/
lpc_rms=-31.12
offset=4649
sample=Tenor_staccato_PP_C3_RR4.opus
</region>

<region>
hivel=127
key=C4
lovel=1
lpc=TGyOQhq0HMOBlvRC7vGVwhirfUKhdg7CZaWVQdIbt8GFw8tB62ekwcquzUElQvvA6JZgwYgDSb/bMgFBpTT4QI9mdMEjZ/hALXqFwPFx2EBfBk/AbBBWv7Bmo7/eLMY/
lpc_rms=-28.09
offset=4120
sample=Tenor_staccato_PP_C4_RR4.opus
</region>

<region>
hivel=127
key=D#3
lovel=1
lpc=LSDjQSEzWcLiHRRCeFq8wXqQdUEh5UrAZfqYP0jZ6cBBLgJBTbuRv+62r0BeqC/Aa4vfwDMlpECRZaW/+tGHviIVkL87EQXApNrLQAPgh8B8AoJAIVIvwEEYtz5QPlG+
lpc_rms=-34.13
offset=6845
sample=Tenor_staccato_PP_D#3_RR4.opus
</region>

<region>
hivel=127
key=D3
lovel=1
lpc=0vcGQoFtkMJouGxC1IAfwlmW9UFnmpnBokc+QbOGLsHPVCxBZHfDwByKMkHXtwfBUGyBwIPTakBIkI6/I9s8QNQp1MD1JV9AcS1SQC9mDsCNacg/V5FgwBeIikBEkQ3A
lpc_rms=-31.32
offset=4455
sample=Tenor_staccato_PP_D3_RR4.opus
</region>

<region>
hivel=127
key=E3
lovel=1
lpc=7ekOQnh3i8JUMUFCvMPlweuKlkFlb/DAJeCJQPD9qMDeqp1A2XYXvgXZpkDA+wq/5/bGwHRwx7/En6BASToawIhvtr9njxzAMwihQPPMej9WJ7G/a2qgvtByjj8sH5m/
lpc_rms=-34.02
offset=3076
sample=Tenor_staccato_PP_E3_RR4.opus
</region>

<region>
hivel=127
key=F#3
lovel=1
lpc=IFsHQuMlmsKcVYpCtm1BwlPsEkKI35fB/9U2QUXlmcE2kJpByoEvwZuJPEGS67LAuz0AwZFVFEEVkZzAgwN8QINZg8D6MYc/KmUfPoLCor6KLcQ/sKIgQC7Mj8AGk84/
lpc_rms=-29.51
offset=3072
sample=Tenor_staccato_PP_F#3_RR4.opus
</region>

<region>
hivel=127
key=F3
lovel=1
lpc=kVAOQgGLmML9n2hCR+QMwq/h9UEsZXDBBIBkQOJYCMFHlzdBE/HjwA9hL0ENzf/AbWxJwNFugEALJH/Ax8V3QIignb8Kb4W+6oLuvrj99z8EtT5APfbDwFySP0AfJuq+
lpc_rms=-33.61
offset=3137
sample=Tenor_staccato_PP_F3_RR4.opus
</region>

<region>
hivel=127
key=G#3
lovel=1
lpc=q2H8QQRxg8K1sVJCvMwhwrI6GUJKN7jBULwvQUBdFMHuDqVAODg7wAKq00C/W9I/SIMhwQFJu0DBdmLAZAyEQGxxoL9zBrW/KFoGQNhyXMDIiy1AhHcnQLqZTMAzv6E+
lpc_rms=-37.15
offset=913
sample=Tenor_staccato_PP_G#3_RR4.opus
</region>

<region>
hivel=127
key=G3
lovel=1
lpc=XwUUQvU/lMLV7VhCYvMrwgkOGEKUZVvBFa5FQbQgs8H72XtB5ArZwGOfE0HOY/O/D/4swRDkxUAU147A+vwsQSkyEsHu8/8/gMFHQANVtMClde1AxvY4wJDipcDUJIdA
lpc_rms=-34.40
offset=1223
sample=Tenor_staccato_PP_G3_RR4.opus
</region>

<region>
hivel=127
key=A#2
lovel=1
lpc=ft11QQHk28G60ZJBCO09wfGbI0Es2fPAQst1QPTPcMDAEYxADoUJwJJMjb39IGtAV99kwGustj/F65+/s6JDPz2rrz4pgg09bPxTvzVEJL+CzQZAEfTmvj1Ml79yQjU/
lpc_rms=-36.75
sample=Tenor_staccato_PP_A#2_RR4.opus
</region>

<region>
hivel=127
key=A2
lovel=1
lpc=LDoHQvp5psLnPZhC4+cWwqIrqUEiMmnBCw+OPiit6UBry5XAHnacP/+H1T6OfANBS0WHwUDRLkHRI1k+UcCWv6m5PMAE/Ki/Ry4NQaweC8E7jKFAemkmwJEGPD6iOgw/
lpc_rms=-28.65
offset=5480
sample=Tenor_staccato_PP_A2_RR4.opus
</region>

<region>
hivel=127
key=G#2
lovel=1
lpc=+rpGQmY73sJGdKpCYUYjwqmt00EC7UXBR7fsQP//NsHwjj9BevYWwbwwHkGOq6tAFF65wXSJoEE2k3zBitaRQWwQh8Ew9hdBUIwWwHwGyr9Raxk/IBjmQAwoI8FMMoBA
lpc_rms=-31.30
offset=5748
sample=Tenor_staccato_PP_G#2_RR4.opus
</region>
</group>

<group>
group_label=RR4_43-84
lpc_hicc1=84
lpc_locc1=43
seq_length=4
seq_position=4

<region>
hivel=127
key=A#4
lovel=1
lpc=nb2iQRY5UcJmU3NCiYgswicuk0EkXGJAU02EwYg0XEH0MX/ARZJwPjxRH8DtxpZAb5i8wBn6vEAsVfc9lCTYwMaM/kBXfB3BAEQ4QU4TAcG2ROVAJdwVwZUl40BlR7q/
lpc_rms=-23.75
offset=1897
sample=Tenor_staccato_MF_A#4_RR4.opus
</region>

<region>
hivel=127
key=A4
lovel=1
lpc=pBDMQbMKd8JtS4BCpos+whht70FuSPvA8LbVwMCH0UC+KibAuQ2aQGBbhsBuANq/ngMdv8WUEUF4WTXBAtIrQT4/0cDWYZPAnbwYQQquRsAkwnG/+HyCP5gTZsDmMU9A
lpc_rms=-23.72
offset=1088
sample=Tenor_staccato_MF_A4_RR4.opus
</region>

<region>
hivel=127
key=B4
lovel=1
lpc=9sZdQX3s9sHDU91B07SDwdgdP0GGHcPAHyLavlxJBb/ubZZAMgm1wHK1i0DfXAy/CRrFwAURH0HJf9vAMlJCQL9q9b+uppC+vt4gQM/qj70nEJi/OciWP4q5VsDUljFA
lpc_rms=-27.21
offset=1219
sample=Tenor_staccato_MF_B4_RR4.opus
</region>

<region>
hivel=127
key=C#5
lovel=1
lpc=vGg+QRwpvMFR+5pBE+gOwSoLW0CzZHM+bHwWwBBBhEAST5/ATocnQASSY7+24eM/EPkxwHDDHkBZdYC/M56QvM2oNL6ocwS9Ju4DP/fjxD8eFzLAMQmIQHDmaMDZ8vE/
lpc_rms=-29.29
offset=316
sample=Tenor_staccato_MF_C#5_RR4.opus
</region>

<region>
hivel=127
key=C5
lovel=1
lpc=2IDdQHSWecEESZBBuWqGwTAtdEEiRCnB2Y6HQM2Hj79SgEA+kVnaPqLLeb7vwvi9qyJVv+2BMEBaZ1PAS2QPQGdTm7+YUIQ/fEh3PuLMp7/9t44/62fuPE7VG79BKx0/
lpc_rms=-26.59
offset=1640
sample=Tenor_staccato_MF_C5_RR4.opus
</region>

<region>
hikey=F5
hivel=127
lokey=D#5
lovel=1
lpc=Lj0AQg9rdMKzOTpCOyDpwYDuCkJOvQnCAS/TQXuDt8GDgYFBP78xwDFxHr+Y8DI/UQHEwAEms0AI1B/A429CQXblb8HyVgdB0xLywHy+CUGCVC7Achc2QK2qtcB/y5NA
lpc_rms=-20.26
offset=5980
pitch_keycenter=D#5
sample=Tenor_staccato_MF_D#5_RR4.opus
</region>

<region>
hivel=127
key=D5
lovel=1
lpc=TOx8Qe0UE8JRZQhC4h+gwZA0pEEa9LjBQWBYQekJT8DIyde+8O+YQNcr7sB7c4FAV7wbwEU7gkCVdg+/M8jCwMA0GEH6nArByh0GQYcSGMGfMR5BC1XYwL7BNUCswEK+
lpc_rms=-22.81
offset=525
sample=Tenor_staccato_MF_D5_RR4.opus
</region>

<region>
hivel=127
key=G#4
lovel=1
lpc=DDEpQb4Du8H3BLJB7aJxwRuxQ0HDksbABehUwP54okCrBpm/FZK/v8aIT0B7aIrAAvlSQCVsKb7fFci/p7NeP0Abjz9S2i/AOgLnP6NUCsDODXhAIUPcvyQM6b8oVwZA
lpc_rms=-28.63
offset=6496
sample=Tenor_staccato_MF_G#4_RR4.opus
</region>

<region>
hivel=127
key=A#3
lovel=1
lpc=+oKdQSmPTcJpkGlCGfwmwhwzuEH9K1DBV64RQYRMJsHVyjtBftznwKy+KkD6QC9A1MrrwDzcmUCYDuA/ZnsIwBeoB8CnREM/cDQ6QLrUIcBUeT0/S6OwvlpubD8Hhfu+
lpc_rms=-29.95
offset=1376
sample=Tenor_staccato_MF_A#3_RR4.opus
</region>

<region>
hivel=127
key=A3
lovel=1
lpc=doHnQT7/nMJPgr1CAfKewi86bULayBbCma2HQa+MGMGAxwVBh0TDwIlcIUE0MTbBMfW8QAE1rcBYLNdAKJcqwJuVJ0D5v7bAA/aOQMuPscC7/RFBrT1mwCJlgsC/ITNA
lpc_rms=-23.77
offset=606
sample=Tenor_staccato_MF_A3_RR4.opus
</region>

<region>
hivel=127
key=B3
lovel=1
lpc=oE1jQSJvEcIthjRCjEsgwsQk9kHJNrrByfaTQQbYicGA6WBBUsYNwRMXzEBVk1fAjSfTPqkax7+354xANdibwE7ZKEAxGVu/ynguvrZ1g78yUxBAjSRTvqEEOMCiviFA
lpc_rms=-26.81
offset=494
sample=Tenor_staccato_MF_B3_RR4.opus
</region>

<region>
hivel=127
key=C#4
lovel=1
lpc=NC7uQXQOlcJLTqxC2vKRwsC5QELmIMPB+tFKQUOZgMFfx7VBlU20wVYbrkHSVVjBXadEv9uMCkHIgPTADVKAQLkELUC6+wLBz3nJQKyGIEAORMzARshIQIDCgMAk5zZA
lpc_rms=-27.24
offset=7301
sample=Tenor_staccato_MF_C#4_RR4.opus
</region>

<region>
hivel=127
key=C4
lovel=1
lpc=YswoQl6G1MKCiN9Cf8GfwkDDREK1psnBPbidQdMc5cESWNdBiaFtwSXqcEHreSLBiR2swPqWN0GcoTHBCLZCQUOvE8Ghy11AaG1BQPI6GsGWyVRBptcrwTcaGEBlS6Y/
lpc_rms=-24.07
offset=6208
sample=Tenor_staccato_MF_C4_RR4.opus
</region>

<region>
hivel=127
key=D#4
lovel=1
lpc=j5LyQaeMnMKHCq9C/DOIwiVpPUI+oPXByTeoQXmkw8HC09VBIZhqwVYBAEGIJDPA0jIXwYtaMEEhyNA+aEdHwE1VKMAzp2U/dAJlQFotocAiyjVA1O9IQPgEtcBezx9A
lpc_rms=-25.95
offset=1869
sample=Tenor_staccato_MF_D#4_RR4.opus
</region>

<region>
hivel=127
key=D4
lovel=1
lpc=nGc2Qq9668LCBPdChHukwnGlNEL2JabBnjWJQQZe4cEUnPBBzai/wZZz0EH+nZXBXsa3v9CBV0GQvlHBMuwWQZ77Yb4BJizBMIxFQTZH7cC+GspAcgUgwc91ukA0TKw9
lpc_rms=-25.57
offset=3344
sample=Tenor_staccato_MF_D4_RR4.opus
</region>

<region>
hivel=127
key=E3
lovel=1
lpc=P1atQcsSVsJ0N2VCWWkpwqSTwEFGCvnAwof7Py3x+8BcPFZBBVcnwahhFkHjgwPBFENsQHKkRcBaX5JAc+PBvz+JMsDAoPA/p0DuP4O0FcDkiiQ/P9eZP5UGd8AQ2zRA
lpc_rms=-29.13
offset=5449
sample=Tenor_staccato_MF_E3_RR4.opus
</region>

<region>
hivel=127
key=E4
lovel=1
lpc=VxViQqMWAsOhGO1CWy+1wnumm0LFWhvCjKDCQBuLHMEZfo1B7EI8wUQPiUFYalDBb2N/wM366UCCT4fAhMuJQA0wgcDB/5lAPIw8wRvvQ0FZLzfAd2f4P1qF5MBQTpBA
lpc_rms=-28.13
offset=8623
sample=Tenor_staccato_MF_E4_RR4.opus
</region>

<region>
hivel=127
key=F#3
lovel=1
lpc=7NzFQei+fcISVJVCD7+Cwm3tMkJXzpbB25zJQNDjLMH/DX5BzrdgwbbqN0H+QxjAgGcrwY56akHHtxrB/Q/WQNzO3cAtV3dAjUoWwO/vMkCyxi+/j/lNPzSvCcBiz44/
lpc_rms=-25.95
offset=905
sample=Tenor_staccato_MF_F#3_RR4.opus
</region>

<region>
hivel=127
key=F#4
lovel=1
lpc=6brcQTPaf8Io2H1CssorwiDQtUGs60bASd0OwVxOUUAXz6lAnCjowDt5OUFe7OvAYHH3wAgolEHIM1zBWCXjQK6X78DsPDtAlg5XP3qpvL/X3SA/dWtDQCjrfsDM9RFA
lpc_rms=-25.33
offset=1260
sample=Tenor_staccato_MF_F#4_RR4.opus
</region>

<region>
hivel=127
key=F3
lovel=1
lpc=M53fQbpmiMKOHo5CIVhRwpvP+0HDCVrBPpT4QJlMTsGk7oVBwOdWwaLNTEHnO57AG9MSwaZjPEH+tPjA//QKQYdSCMFogZa5SHiNQO7eqb+vweG/YdvSQBhj8sDz9DVA
lpc_rms=-28.06
offset=2376
sample=Tenor_staccato_MF_F3_RR4.opus
</region>

<region>
hivel=127
key=F4
lovel=1
lpc=VrC4QWTRccJIXIxCgUhYwpOq8UGZUgXBrbAcwG3EXsAc8lRBnOFZwehRMkFU51fAqwT6wKPYJkGwuGTAyDwEwC7q/j2Yv4I/rg3Iv7kijUCDNL7AY3bVQG2/nsAuJts/
lpc_rms=-22.99
offset=6846
sample=Tenor_staccato_MF_F4_RR4.opus
</region>

<region>
hivel=127
key=G#3
lovel=1
lpc=qxB4QRlzIMKdJ0BC5BMiwhDjvUGQEsDAw+sQv5NcPsAJB91A7ZzQwBjnXkAZGkNAOJwCwZiA8kCGconAwQNsP+CAK0AfSMPAKzECQZhN/8BikKlAcnQJwOyinz4jMko+
lpc_rms=-28.92
offset=1314
sample=Tenor_staccato_MF_G#3_RR4.opus
</region>

<region>
hivel=127
key=G3
lovel=1
lpc=ZeOtQd6GaMLyu4dCdstWwtPTHkIrv+fB0E5xQbKqo8BDyNs/phdsP3FuP7+i5sI/NRikwHuV4UB497DARD0cQK87mb5bdYC96ioEP5WPh8DsMQFBg4PCwPKNpz/JjqM+
lpc_rms=-27.34
offset=752
sample=Tenor_staccato_MF_G3_RR4.opus
</region>

<region>
hivel=127
key=G4
lovel=1
lpc=xhKYQTV3PsJP+U5CGQUVwgId4EE3257B6HCjQJH/RT8QN3hA9DKrwCXKbkAhsAjAmacYwBhS7UDYEI/Ah31xvz9w2L3Rk6o/E1pBQG+QBMGj6ttADTTEPKJhlMAZPldA
lpc_rms=-28.25
offset=4467
sample=Tenor_staccato_MF_G4_RR4.opus
</region>

<region>
hivel=127
key=A#2
lovel=1
lpc=aGDhQTpDdMLO8zpCuYjLwWLasEEiSDLBEz42wPcC1T+CMJ2/wJTnQPqzGcDVW+0+ViaAwHtXpb5zzKFAKjStwKOD/kDMIA/BX+5LQBnOCT93Iv4/XT8hwL/lEL6OhCg/
lpc_rms=-33.59
offset=5644
sample=Tenor_staccato_MF_A#2_RR4.opus
</region>

<region>
hivel=127
key=A2
lovel=1
lpc=GLWZQYM3N8IHSyxC32LRwStJlEEUxDfBtrgGvynwm0CQI3vAr85xQFmYpj9RQYPAgJYxvx62L0Bn/a8/emsKwNkJ5z7pori/BV9KQNldosCcsb9AZvNGwHtBG7+iaGU/
lpc_rms=-24.87
offset=5151
sample=Tenor_staccato_MF_A2_RR4.opus
</region>

<region>
hivel=127
key=B2
lovel=1
lpc=JNlYQlyWBMN/s+tC+/F/wm/MLUKXlIXBC8kLwQHfjUBX9qrAD51WQQVxRMBZPS9BhmrawUF8UUFTQTRAT6ucvzTjRkAU07HAqHgVQEnZhEAIJn7BkQecQfrVRMFT7H1A
lpc_rms=-30.00
offset=6042
sample=Tenor_staccato_MF_B2_RR4.opus
</region>

<region>
hivel=127
key=C#3
lovel=1
lpc=I+4YQmYfusJ0uLVCPa5twvGZH0LLWgHCx2vhQT9MzMG3XrhBFFJhwTzKTEFNMj3BgLpQv+n/MEGVyiLBYzu+QGCljL8Cm9DAmsslQYy5e8DnwajA49jSQGRNicAN5/g/
lpc_rms=-22.93
offset=4816
sample=Tenor_staccato_MF_C#3_RR4.opus
</region>

<region>
hivel=127
key=C3
lovel=1
lpc=2AMoQvZlvsKlmqVCb11awpHQJ0IQwdjBLlxvQS9CVcE6FUlBazJ2wBMyAEH1dfe/SZtmwboEKkEyW4fAigyYQKZcF8AEumDANZTfP+JmmD8XZr8/i9raPmPbx79wfpc9
lpc_rms=-25.64
offset=6226
sample=Tenor_staccato_MF_C3_RR4.opus
</region>

<region>
hivel=127
key=D#3
lovel=1
lpc=YtWXQaqZMsI98DhCelQRwjwoxEFs6kPBSrnPQITFE8H/Wj5BgGYGwQkyA0GTervAoF4CwDlexEBfFNLAwMDbQNy87cCqYZpAfFH8v3OGXz/oixa/c8kVQIgBWMBi+eg/
lpc_rms=-31.12
offset=7726
sample=Tenor_staccato_MF_D#3_RR4.opus
</region>

<region>
hivel=127
key=D3
lovel=1
lpc=YdvdQSqbdcLToldCC6sSwu93ykEI5HDBkUgjQR12TMGgJIVBmOk0wXnDX0Fl1F/BROk3QHlYMb5adA1AqWUVPpvBnMAu5cY/C+a1P4vIFUClU6+/PNBJv8weIj96VYC+
lpc_rms=-29.68
offset=5460
sample=Tenor_staccato_MF_D3_RR4.opus
</region>

<region>
hivel=127
key=G#2
lovel=1
lpc=Z7N9QSBEJsIEgzxC3jEJwgvVrUGXxDPBXGFnP1Xygj213IpArQdWwL4d1T+RgJQ9cfCtwBm9DUEfM8rAt52MQFBDscBd3plAyi9FwOK81z+7QWs/HkwmwMqTAUD7MgW/
lpc_rms=-27.05
offset=6792
sample=Tenor_staccato_MF_G#2_RR4.opus
</region>
</group>

<group>
group_label=RR4_85-127
lpc_hicc1=127
lpc_locc1=85
seq_length=4
seq_position=4

<region>
hivel=127
key=A#4
lovel=1
lpc=80njQFqKfMHugJpB5OOZwR6zhkHqgDXB74++QHmNgsBSu05ALyL3vwgpWD9hdNa+T4d7PbXJgb/WQWZAZOSbwJ8kYkD3uxPAi9MQQMJB5r+P3yVATtAxwH1WtD9FIhs+
lpc_rms=-19.90
offset=1376
sample=Tenor_staccato_FF_A#4_RR4.opus
</region>

<region>
hivel=127
key=A4
lovel=1
lpc=SGnGQBHRWsHeSYBB4Tx/wQduakFYoh7ByB2SQBUJVcDtyIRAabKawHrSvEBfR8rAvc2zQEt2asBJH+0/2zBav4qOnL9ATk5A4Ax1wGFbYUBhDBXAyAd4P60FV764XO4+
lpc_rms=-19.42
offset=1615
sample=Tenor_staccato_FF_A4_RR4.opus
</region>

<region>
hivel=127
key=B4
lovel=1
lpc=bLbIQBAAU8E2pGVBlcNFwcvaDUH5/qPAYMtfQAmlnsApEdpAUQLPwDTRlUADPcS/F/ycvy7nzT+t7Kc+evvgv0RkZT/Bpjo+kFgyv1K8HD8ENiU/Ag9Bvz/vSj62BZ4+
lpc_rms=-21.07
offset=1360
sample=Tenor_staccato_FF_B4_RR4.opus
</region>

<region>
hivel=127
key=C#5
lovel=1
lpc=BzF8QOeo5cDpK91AAb6fwFCCWUBKyJi/v+jnvldhHD/d1s2+GpASPnJxKT86wS6/ouOXPh0yGj5siCm/sNEzPzDJUL9gj6Y/X5Awv7B2+z07GZ++lExyPz4lz774Loc+
lpc_rms=-22.81
offset=96
sample=Tenor_staccato_FF_C#5_RR4.opus
</region>

<region>
hivel=127
key=C5
lovel=1
lpc=V/+iQI9lLsGWS1BBGfVNwZMmPUH8T/bAHtgiQCJh375w6nG//hQQQEn0DsCK2Cs/2BwcPyfOpL/rowxAZkUfwFiV+j8vIYm+Jn6mviVV9z7u2Be/9VM4P2cgQ75HIIO9
lpc_rms=-20.25
offset=1580
sample=Tenor_staccato_FF_C5_RR4.opus
</region>

<region>
hikey=F5
hivel=127
lokey=D#5
lovel=1
lpc=pkpAQZx5ycF5w9dBQECgwXuHLkEK1VLAMcbvP+C9h8BBv8RAOSa0wGa+fj8Xw8lASKUmwXT4I0HdKd3AoGwnQKhtgj9dQqe/kaMCQOZWJsAR6uQ/1gw5P1cHhb+3dHA/
lpc_rms=-18.37
offset=7365
pitch_keycenter=D#5
sample=Tenor_staccato_FF_D#5_RR4.opus
</region>

<region>
hivel=127
key=D5
lovel=1
lpc=yNbLQL3LRsGYw1FBj0o2wZhEGUG1oq7AN9wEQI/Ekr+q+aw/Jo36v1krlj+Z2To+jY26vss+vT9SZQ/AAN9wP+9XmT90Cq6/LrezPw97o7+Dp5M/SyJHPspNuL+l/Ls/
lpc_rms=-19.50
offset=199
sample=Tenor_staccato_FF_D5_RR4.opus
</region>

<region>
hivel=127
key=E4
lovel=1
lpc=dvAEQcH4nME2XbZBAm2rwU1wj0FLAh3By/ARPzm25T/Oaem9GeYXv2+rPEDum7TA/nmjQKsVYsCCq3dAAvJpwHmo1D+h8+k+d5Tovy4BGUDwatG/Iup0Pgy56T6w7y6+
lpc_rms=-21.07
offset=6526
sample=Tenor_staccato_FF_E4_RR4.opus
</region>

<region>
hivel=127
key=F#4
lovel=1
lpc=meUTQd1Hl8GLZZtBwwSKwc+xO0GkaqXAsHAfQHwGmcDVIchAYDaTwLSRjkBK6R/AuISUv94P8j/RFoe/IafOP4H/M8AukME/LLhIv1IuYD+m8sg9ghmwPvu9Jr/NFOs+
lpc_rms=-20.41
offset=1703
sample=Tenor_staccato_FF_F#4_RR4.opus
</region>

<region>
hivel=127
key=F4
lovel=1
lpc=D+UXQR7hp8F8DsBBD9O1waU5h0GwHQbBzxFUQL7rcMDcsZBAIm6FwOIBY0BauY6/Q7ybv3hIgz/JpYC+Hfs+P+BtEMCKlBNAvXIawPWKV0AIDjPA9lYhQA/AjL9nnMw8
lpc_rms=-18.83
offset=1457
sample=Tenor_staccato_FF_F4_RR4.opus
</region>

<region>
hivel=127
key=G#4
lovel=1
lpc=dmefQHeYLsEm809BYrpGwQTYKUFvQNLAqXbYPzEDgL4cCHA//7Wbv5V4lj/eYnW/HEHOPgtc2T5r1lC//T9EP0R78r6RXnw+56X4vvSt0z3CFqg+IyAkPggIHb8j/DQ/
lpc_rms=-23.02
offset=1801
sample=Tenor_staccato_FF_G#4_RR4.opus
</region>

<region>
hivel=127
key=G4
lovel=1
lpc=p63hQIKbg8FacZZB7HyIwRWfUUE6rr7Ay3wmP6MwVr9SW1NA+/LBwJpwBUGXbQPBR1DQQEkpg8AvL/E/lw6tvseuqb8hUgxAPPG6v3vYDD86y8E9Pkwwv8XJKj9txRu7
lpc_rms=-23.53
offset=3014
sample=Tenor_staccato_FF_G4_RR4.opus
</region>

<region>
hivel=127
key=C#4
lovel=1
lpc=VEeZQeeGOMLD8l9C79RbwgMFJEL7z5LBoV3ZP6GlpT/NPyVADX6PwBUV30AhHa7A91t2P+Uf3j/qmZG/ksj9v9OU/j8EiJC/0XfaP4zoCsCA3IFAEf2swMNLv0CXcEbA
lpc_rms=-17.97
offset=3610
sample=Tenor_staccato_FF_C#4_RR4.opus
</region>

<region>
hivel=127
key=C4
lovel=1
lpc=JkseQZaor8HMEcNB37W1wW1tjUG09+HAmxuRwHX/GkHcnRvBJAcMQbtAuMAnMRZA+SNOPu2pkL/p3fM/q+x9wIpjjEDbrkTAK8UyQCgHEsDIXJM/ojOWPvAlib+tU0o/
lpc_rms=-19.89
offset=5512
sample=Tenor_staccato_FF_C4_RR4.opus
</region>

<region>
hivel=127
key=D#4
lovel=1
lpc=9RD6QMf7gMGl1oJBNNRvwTeML0EO6IHA4a+5vgvVgL2VrYA//tyZv9bzKkCBe4m/EyIzwMmLgUAkDWDAfJFSQCRITsCb8dA/UAEPv75Q5z5j5Gg/WaRgv63HPD9i7Se/
lpc_rms=-22.20
offset=9635
sample=Tenor_staccato_FF_D#4_RR4.opus
</region>

<region>
hivel=127
key=D4
lovel=1
lpc=wKpNQQgk8sEtuwpC4iADwgkAxEEwTCTB+UyqP4cIdcAlEhBBbEdAwSzne0E1+TnBDMLBP2eFj0CScK7AJWKXQDaBYsD+0Sw+4rlFP8YWeD9bIC6+3BOIPjAElb/WBg0/
lpc_rms=-19.92
offset=7045
sample=Tenor_staccato_FF_D4_RR4.opus
</region>

<region>
hivel=127
key=A#3
lovel=1
lpc=VBklQe5rxcFwJeJB6sK/wavlZEE+/tu/XP7cwNom0EBe/Aa/JgOAwHE6xUDFvp/AgKpNP/77IUDBODvAwAsWQMSxFMCrI7c/fRgtv9/DMz5bfsA+pqw7Puhoir9riW8/
lpc_rms=-24.53
offset=1538
sample=Tenor_staccato_FF_A#3_RR4.opus
</region>

<region>
hivel=127
key=A3
lovel=1
lpc=tzP2QO12hMGqyYtBr9R2wSaHNEFXGHXAOiFhwHAJkUDjkxXApF90P9TUoT9zTULAcSpfQM5/KcBdegVAAJ3Uv06zzz6lapi+RZWmP7a4E8AAmBtAb10FwKYimj/r9cO8
lpc_rms=-22.25
offset=1301
sample=Tenor_staccato_FF_A3_RR4.opus
</region>

<region>
hivel=127
key=B3
lovel=1
lpc=6xWjQNQ1JsFU+TNBw5YnwSbXAkFUwnzAQih4vxv3L0BwaR3AhbPtPyHEJ79x6wS/4fiSP/0wRL8IaDI/zS2zv+wSyT//ebK/DLO6Pwy55L8NsrY/8+4lvxa2CD4V2ls+
lpc_rms=-22.97
offset=1892
sample=Tenor_staccato_FF_B3_RR4.opus
</region>

<region>
hivel=127
key=G#3
lovel=1
lpc=LJXIQDlUVMG4glxBJJgywZJ1vUC7Ch8+fVRxwFu/akCTnPS/7yGHPy3tn76zAqw+8OZDv7mSKz9iG2y+3Z0IPK4Vwb5RRYs9yQxgPxK117+hhxlA4qPWv3pElD6+NGQ+
lpc_rms=-23.68
offset=892
sample=Tenor_staccato_FF_G#3_RR4.opus
</region>

<region>
hivel=127
key=E3
lovel=1
lpc=ifAEQWQOkMEzRZNBnQ1vwUBHN0GJhxrBzb4NQcvT7MA0bbtA3ih5wM+PyT819MM9VoIyvsp6Mr/7AoQ/NQdCPo9diL8yy/I+Gqz/PkWGlr+xuas/lNBIvzSx8b4P01o/
lpc_rms=-25.81
offset=7267
sample=Tenor_staccato_FF_E3_RR4.opus
</region>

<region>
hivel=127
key=F#3
lovel=1
lpc=myQHQdn+jsEsTphByraRwW7baUFX8AbBBf0yQEGq1L7yO1k9rFKJP0Am8b+HXR5AkGQgwI0k4T9UUcK+7Q6uv86k7j9rKf2/Xt//P18ay7/MWcc/CT3Ev73mrj+4bwG/
lpc_rms=-23.70
offset=4926
sample=Tenor_staccato_FF_F#3_RR4.opus
</region>

<region>
hivel=127
key=F3
lovel=1
lpc=pmwSQba8oMG2gblB2sS7wUN6lEGJWBnBv8nbP1HsZ0CsibXALPyxQGEPj8DGYCdAztV0v7aSlj+7qse//uXCP+W8t78YsJQ/7RXTv+zCwj/ohKW/nNx4P9Gcbb7TgMU+
lpc_rms=-21.27
offset=2468
sample=Tenor_staccato_FF_F3_RR4.opus
</region>

<region>
hivel=127
key=G3
lovel=1
lpc=B/XbQBdZasE7OoFBp6B6wcArTkEUnM/AJG90v3Y6lEA29cTA+uDMQKxJjMDkowVAsxv1PArCx79eMglAiPsDwJgxlD8wUZk+MLjWvZolib+YOOo/eWTBv51tWj9PYMW+
lpc_rms=-21.50
offset=1043
sample=Tenor_staccato_FF_G3_RR4.opus
</region>

<region>
hivel=127
key=A#2
lovel=1
lpc=t8V8QV7vF8Iz3SNCQFwOwmmZ+0H8QsXBeo2IQeaWZcEIT3lB8+Y5wTfyfUDaLa8/YRZbwLhhSECYgNc+O6bTwIcY/0DmDI7AuzwQQPlaTz9K7FfAALdrQBVsMsCN7WQ/
lpc_rms=-22.24
offset=6573
sample=Tenor_staccato_FF_A#2_RR4.opus
</region>

<region>
hivel=127
key=A2
lovel=1
lpc=CVsIQdVBlcHjXZNBYudjwdyMM0FBfvrAvbM6QC1aOL/SOh9AxDyCwF45W0ARBd6/hnVzPzY73T5RAVHAhQeJQGFiPMC9SwFA8cV5vpA9/L+PWFFAiag/wMEJrj/pWY6+
lpc_rms=-22.09
offset=6600
sample=Tenor_staccato_FF_A2_RR4.opus
</region>

<region>
hivel=127
key=B2
lovel=1
lpc=aDJDQZVN3MHuwuJB057CwTggrEF7MovBDiZIQe9aMsEkllBBoSEywXla5UDpyZzA8C5+QPgznb+I3gnAOm8JQMfMG8Becm1AIINQwMxgTkDYVSXAnssGQMZbvr9wNIo+
lpc_rms=-23.71
offset=5550
sample=Tenor_staccato_FF_B2_RR4.opus
</region>

<region>
hivel=127
key=C#3
lovel=1
lpc=cHKJQb2lIsKdIDNCQ6Afwty5A0IT8cTBgfSQQUfDcMG/SFVBFAL/wL5/OUDL1oi/k8MqP2BEjT94nHu/CffBv2hHsT929ji/F/0QQAL7S8AvPhVALQbqvpgvWL56Pei7
lpc_rms=-19.08
offset=6385
sample=Tenor_staccato_FF_C#3_RR4.opus
</region>

<region>
hivel=127
key=C3
lovel=1
lpc=oVZkQSiyAMJ9nQJCbcnOwe19mUE1KVfBcO4WQVSjCcHLaghBGOGtwGF2MkAVgeK/Ag6rPp60PECOW4HAiwMMQBZsB8B+PV1ANpVQwPZIaEDktojAU0VyQAZNIsBOWWY/
lpc_rms=-21.94
offset=7447
sample=Tenor_staccato_FF_C3_RR4.opus
</region>

<region>
hivel=127
key=D#3
lovel=1
lpc=jFXhQBVfbMGC1m9BKd9PwfMWLEFds/zAhcqdQCmZeMC48YBApugXwIfxmT6pwgI+PPshvt7IvD9+3QHAjZFyPzQrhr8b5as/boyIv2Zqjz8DqRq/AH03P8epp75w1fq9
lpc_rms=-23.76
offset=6775
sample=Tenor_staccato_FF_D#3_RR4.opus
</region>

<region>
hivel=127
key=D3
lovel=1
lpc=KrkuQZiAw8HK98hBIFqawX8INkErs2XA8Nxjv98gKT8pNXw/bSgcvxTAZr5dHP8+yypGv2//wD+tJZu+NJnwv9/S6T/ZcxK/Yhi9P1QUS8A2/E9AZoAawPlwrz+e7Yy+
lpc_rms=-19.19
offset=6140
sample=Tenor_staccato_FF_D3_RR4.opus
</region>

<region>
hivel=127
key=G#2
lovel=1
lpc=xObsQLDsb8GNiT5BxvOKwPBUpb+h/eE/4u+hP9zP9b+p5dI+RGrKvU9BIz8giQE/9UTDvyHV5z6M/5A/2pm3vyrplb5zc0ZAPAM4wFE/tT1EV/o/6/YJwPwypT9hDau+
lpc_rms=-18.00
offset=7991
sample=Tenor_staccato_FF_G#2_RR4.opus
</region>
</group>